<!-- Generator: Adobe Illustrator 18.1.1, SVG Export Plug-In  -->
<svg version="1.1"
     xmlns="http://www.w3.org/2000/svg" xmlns:xlink="http://www.w3.org/1999/xlink" xmlns:a="http://ns.adobe.com/AdobeSVGViewerExtensions/3.0/"
     x="0px" y="0px" width="32px" height="32px" viewBox="0 0 32 32" enable-background="new 0 0 32 32" xml:space="preserve"><title>Instagram</title>
<defs>
</defs>
<path d="M4.1,0h23.8C30.2,0,32,1.8,32,4.1v23.8c0,2.3-1.8,4.1-4.1,4.1H4.1C1.8,32,0,30.2,0,27.9V4.1C0,1.8,1.8,0,4.1,0z M23.3,3.6
    c-0.8,0-1.4,0.6-1.4,1.4v3.4c0,0.8,0.6,1.4,1.4,1.4h3.6c0.8,0,1.4-0.6,1.4-1.4V5c0-0.8-0.6-1.4-1.4-1.4L23.3,3.6L23.3,3.6z
     M28.4,13.5h-2.8c0.3,0.9,0.4,1.8,0.4,2.7c0,5.3-4.5,9.6-9.9,9.6c-5.5,0-9.9-4.3-9.9-9.6c0-1,0.1-1.9,0.4-2.7H3.6v13.5
    c0,0.7,0.6,1.3,1.3,1.3h22.3c0.7,0,1.3-0.6,1.3-1.3L28.4,13.5L28.4,13.5z M16,9.7c-3.5,0-6.4,2.8-6.4,6.2s2.9,6.2,6.4,6.2
    c3.5,0,6.4-2.8,6.4-6.2S19.6,9.7,16,9.7z"/>
</svg>
