<svg xmlns="http://www.w3.org/2000/svg" viewBox="0 0 31.8 31.8"><title>instagram-sm</title><g id="7bee102f-794d-4c08-9e77-034cb8bfd772" data-name="Layer 2"><g id="f8a6990d-85cd-4985-b70d-a634d6373d15" data-name="Logo"><path d="M15.9,2.8c4.3,0,4.8,0,6.5.1a7.61,7.61,0,0,1,3,.6,4.39,4.39,0,0,1,1.8,1.2,5.17,5.17,0,0,1,1.2,1.8,10.08,10.08,0,0,1,.6,3c.1,1.7.1,2.2.1,6.5s0,4.8-.1,6.5a7.61,7.61,0,0,1-.6,3,4.39,4.39,0,0,1-1.2,1.8,5.17,5.17,0,0,1-1.8,1.2,10.08,10.08,0,0,1-3,.6c-1.7.1-2.2.1-6.5.1s-4.8,0-6.5-.1a7.61,7.61,0,0,1-3-.6,4.39,4.39,0,0,1-1.8-1.2,5.17,5.17,0,0,1-1.2-1.8,10.08,10.08,0,0,1-.6-3c-.1-1.7-.1-2.2-.1-6.5s0-4.8.1-6.5a7.61,7.61,0,0,1,.6-3A4.39,4.39,0,0,1,4.6,4.7,5.17,5.17,0,0,1,6.4,3.5a10.08,10.08,0,0,1,3-.6c1.7,0,2.2-.1,6.5-.1m0-2.8C11.6,0,11,0,9.3.1A12.39,12.39,0,0,0,5.4.8,8.39,8.39,0,0,0,2.6,2.6,7.86,7.86,0,0,0,.8,5.4,10.08,10.08,0,0,0,.1,9.3C0,11,0,11.6,0,15.9s0,4.9.1,6.6a12.39,12.39,0,0,0,.7,3.9,8.39,8.39,0,0,0,1.8,2.8A7.86,7.86,0,0,0,5.4,31a10.08,10.08,0,0,0,3.9.7c1.7.1,2.3.1,6.6.1s4.9,0,6.6-.1a12.39,12.39,0,0,0,3.9-.7,8.39,8.39,0,0,0,2.8-1.8A7.86,7.86,0,0,0,31,26.4a10.08,10.08,0,0,0,.7-3.9c.1-1.7.1-2.3.1-6.6s0-4.9-.1-6.6A12.39,12.39,0,0,0,31,5.4a8.39,8.39,0,0,0-1.8-2.8A7.86,7.86,0,0,0,26.4.8,10.08,10.08,0,0,0,22.5.1C20.8,0,20.2,0,15.9,0Z"/><circle cx="24.4" cy="7.4" r="1.9"/><path d="M15.9,7.7a8.2,8.2,0,1,0,8.2,8.2A8.24,8.24,0,0,0,15.9,7.7Zm0,13.6A5.3,5.3,0,1,1,21.2,16,5.34,5.34,0,0,1,15.9,21.3Z"/><path d="M15.9,2.8c4.3,0,4.8,0,6.5.1a7.61,7.61,0,0,1,3,.6,4.39,4.39,0,0,1,1.8,1.2,5.17,5.17,0,0,1,1.2,1.8,10.08,10.08,0,0,1,.6,3c.1,1.7.1,2.2.1,6.5s0,4.8-.1,6.5a7.61,7.61,0,0,1-.6,3,4.39,4.39,0,0,1-1.2,1.8,5.17,5.17,0,0,1-1.8,1.2,10.08,10.08,0,0,1-3,.6c-1.7.1-2.2.1-6.5.1s-4.8,0-6.5-.1a7.61,7.61,0,0,1-3-.6,4.39,4.39,0,0,1-1.8-1.2,5.17,5.17,0,0,1-1.2-1.8,10.08,10.08,0,0,1-.6-3c-.1-1.7-.1-2.2-.1-6.5s0-4.8.1-6.5a7.61,7.61,0,0,1,.6-3A4.39,4.39,0,0,1,4.6,4.7,5.17,5.17,0,0,1,6.4,3.5a10.08,10.08,0,0,1,3-.6c1.7,0,2.2-.1,6.5-.1m0-2.8C11.6,0,11,0,9.3.1A12.39,12.39,0,0,0,5.4.8,8.39,8.39,0,0,0,2.6,2.6,7.86,7.86,0,0,0,.8,5.4,10.08,10.08,0,0,0,.1,9.3C0,11,0,11.6,0,15.9s0,4.9.1,6.6a12.39,12.39,0,0,0,.7,3.9,8.39,8.39,0,0,0,1.8,2.8A7.86,7.86,0,0,0,5.4,31a10.08,10.08,0,0,0,3.9.7c1.7.1,2.3.1,6.6.1s4.9,0,6.6-.1a12.39,12.39,0,0,0,3.9-.7,8.39,8.39,0,0,0,2.8-1.8A7.86,7.86,0,0,0,31,26.4a10.08,10.08,0,0,0,.7-3.9c.1-1.7.1-2.3.1-6.6s0-4.9-.1-6.6A12.39,12.39,0,0,0,31,5.4a8.39,8.39,0,0,0-1.8-2.8A7.86,7.86,0,0,0,26.4.8,10.08,10.08,0,0,0,22.5.1C20.8,0,20.2,0,15.9,0Z"/><circle cx="24.4" cy="7.4" r="1.9"/><path d="M15.9,7.7a8.2,8.2,0,1,0,8.2,8.2A8.24,8.24,0,0,0,15.9,7.7Zm0,13.6A5.3,5.3,0,1,1,21.2,16,5.34,5.34,0,0,1,15.9,21.3Z"/></g></g></svg>