<!-- Generator: Adobe Illustrator 18.1.1, SVG Export Plug-In  -->
<svg version="1.1"
     xmlns="http://www.w3.org/2000/svg" xmlns:xlink="http://www.w3.org/1999/xlink" xmlns:a="http://ns.adobe.com/AdobeSVGViewerExtensions/3.0/"
     x="0px" y="0px" width="32px" height="32px" viewBox="0 0 32 32" enable-background="new 0 0 32 32" xml:space="preserve" aria-labelledby="title" role="img"><title>SoundCloud</title>
<defs>
</defs>
<path d="M0,0v32h32V0H0z M4.7,21.2H3.9l-0.4-1.6L3.9,18h0.8l0.4,1.6L4.7,21.2z M7.8,22.7H7l-0.4-3.1L7,16.5h0.8l0.4,3.1L7.8,22.7z
     M10.9,22.7h-0.8l-0.4-4l0.4-3.8h0.8l0.4,3.9L10.9,22.7z M14.1,22.7h-0.8l-0.4-5.5l0.4-5.5h0.8l0.4,5.5L14.1,22.7z M25.3,22.7
    c-0.1,0-8.9,0-8.9,0c-0.2,0-0.3-0.2-0.3-0.4v-9.8c0-0.2,0.1-0.3,0.3-0.4c0.6-0.2,1.3-0.4,2-0.4c3,0,5.4,2.2,5.6,5
    c0.4-0.2,0.8-0.2,1.3-0.2c1.8,0,3.2,1.4,3.2,3.1C28.5,21.3,27.1,22.7,25.3,22.7z"/>
</svg>
