<!-- Generator: Adobe Illustrator 18.1.1, SVG Export Plug-In  -->
<svg version="1.1"
   xmlns="http://www.w3.org/2000/svg" xmlns:xlink="http://www.w3.org/1999/xlink" xmlns:a="http://ns.adobe.com/AdobeSVGViewerExtensions/3.0/"
   x="0px" y="0px" width="32px" height="26px" viewBox="0 0 32 26" enable-background="new 0 0 32 26" xml:space="preserve"><title>Twitter</title>
<defs>
</defs>
<path d="M10.1,26C6.4,26,2.9,24.9,0,23.1c0.5,0.1,1,0.1,1.6,0.1c3.1,0,5.9-1,8.2-2.8c-2.9-0.1-5.3-2-6.1-4.6
  c0.4,0.1,0.8,0.1,1.2,0.1c0.6,0,1.2-0.1,1.7-0.2c-3-0.6-5.3-3.3-5.3-6.4c0,0,0-0.1,0-0.1c0.9,0.5,1.9,0.8,3,0.8
  C2.5,8.8,1.3,6.8,1.3,4.5c0-1.2,0.3-2.3,0.9-3.3c3.2,4,8.1,6.6,13.5,6.9c-0.1-0.5-0.2-1-0.2-1.5c0-3.6,2.9-6.6,6.6-6.6
  c1.9,0,3.6,0.8,4.8,2.1c1.5-0.3,2.9-0.8,4.2-1.6c-0.5,1.5-1.5,2.8-2.9,3.6c1.3-0.2,2.6-0.5,3.8-1c-0.9,1.3-2,2.5-3.3,3.4
  c0,0.3,0,0.6,0,0.8C28.7,16,22.1,26,10.1,26"/>
</svg>
