<!-- Generator: Adobe Illustrator 18.1.1, SVG Export Plug-In  -->
<svg version="1.1"
	 xmlns="http://www.w3.org/2000/svg" xmlns:xlink="http://www.w3.org/1999/xlink" xmlns:a="http://ns.adobe.com/AdobeSVGViewerExtensions/3.0/"
	 x="0px" y="0px" width="32px" height="32px" viewBox="0 0 32 32" enable-background="new 0 0 32 32" xml:space="preserve">
     <title>Vimeo</title>
<path d="M0,0v32h32V0H0z M26.9,10.6c-0.1,2.3-1.7,5.3-4.7,9.2c-3.1,4.1-5.8,6.1-8,6.1c-1.3,0-2.5-1.2-3.4-3.7
	c-0.6-2.3-1.2-4.6-1.9-6.8c-0.7-2.5-1.4-3.7-2.2-3.7c-0.2,0-0.8,0.4-1.8,1.1l-1.1-1.4c1.1-1,2.3-2,3.4-3c1.5-1.3,2.7-2,3.4-2.1
	c1.8-0.2,2.9,1.1,3.3,3.7c0.4,2.8,0.8,4.6,0.9,5.3c0.5,2.4,1.1,3.5,1.7,3.5c0.5,0,1.2-0.8,2.2-2.3c1-1.5,1.5-2.7,1.6-3.5
	c0.1-1.3-0.4-2-1.6-2c-0.6,0-1.1,0.1-1.7,0.4c1.1-3.7,3.3-5.5,6.5-5.4C25.9,6.1,27.1,7.6,26.9,10.6z"/>
</svg>