<!-- Generator: Adobe Illustrator 18.1.1, SVG Export Plug-In  -->
<svg version="1.1"
	 xmlns="http://www.w3.org/2000/svg" xmlns:xlink="http://www.w3.org/1999/xlink" xmlns:a="http://ns.adobe.com/AdobeSVGViewerExtensions/3.0/"
	 x="0px" y="0px" width="32px" height="22.5px" viewBox="0 0 32 22.5" enable-background="new 0 0 32 22.5" xml:space="preserve">

	<path id="Triangle_1_" fill="#FFFFFF" d="M12.7,15.4l8.6-4.5l-8.6-4.5V15.4z"/>
	<path d="M31.7,4.9c0,0-0.3-2.2-1.3-3.2c-1.2-1.3-2.6-1.3-3.2-1.4C22.7,0,16,0,16,0h0c0,0-6.7,0-11.2,0.3
			c-0.6,0.1-2,0.1-3.2,1.4c-1,1-1.3,3.2-1.3,3.2S0,7.4,0,10v2.4c0,2.6,0.3,5.2,0.3,5.2s0.3,2.2,1.3,3.2c1.2,1.3,2.8,1.2,3.5,1.4
			C7.7,22.4,16,22.5,16,22.5s6.7,0,11.2-0.3c0.6-0.1,2-0.1,3.2-1.4c1-1,1.3-3.2,1.3-3.2s0.3-2.6,0.3-5.2V10
			C32,7.4,31.7,4.9,31.7,4.9z M12.7,15.4l0-9l8.6,4.5L12.7,15.4z"/>
</svg>