<!-- Generator: Adobe Illustrator 18.1.1, SVG Export Plug-In  -->
<svg version="1.1"
     xmlns="http://www.w3.org/2000/svg" xmlns:xlink="http://www.w3.org/1999/xlink" xmlns:a="http://ns.adobe.com/AdobeSVGViewerExtensions/3.0/"
     x="0px" y="0px" width="32px" height="22px" viewBox="0 0 32 22" enable-background="new 0 0 32 22" xml:space="preserve">
<defs>
</defs>
<path d="M31.7,4.8c0,0-0.3-2.2-1.3-3.1c-1.2-1.3-2.6-1.3-3.2-1.4C22.7,0,16,0,16,0l0,0c0,0-6.7,0-11.2,0.3c-0.6,0.1-2,0.1-3.2,1.4
    c-1,1-1.3,3.1-1.3,3.1S0,7.2,0,9.8v2.3c0,2.5,0.3,5.1,0.3,5.1s0.3,2.2,1.3,3.1c1.2,1.3,2.8,1.2,3.5,1.4C7.7,21.9,16,22,16,22
    s6.7,0,11.2-0.3c0.6-0.1,2-0.1,3.2-1.4c1-1,1.3-3.1,1.3-3.1s0.3-2.5,0.3-5.1V9.8C32,7.2,31.7,4.8,31.7,4.8z M12.7,15.1V6.3l8.6,4.4
    L12.7,15.1z"/>
</svg>
