<?xml version="1.0" encoding="utf-8"?>
<!-- Generator: Adobe Illustrator 21.0.0, SVG Export Plug-In . SVG Version: 6.00 Build 0)  -->
<svg version="1.1" id="Untitled-Page_x25_201" xmlns="http://www.w3.org/2000/svg" xmlns:xlink="http://www.w3.org/1999/xlink"
	 x="0px" y="0px" viewBox="0 0 250 45" style="enable-background:new 0 0 250 45;" xml:space="preserve">
<style type="text/css">
	.st0{fill:none;}
	.st1{fill:#FFFFFF;}
	.st2{fill:#AB0520;}
	.st3{fill:#0C234B;}
</style>
<path class="st0" d="z"/>
<g id="Layer_x25_201">
	<path class="st1" d="M9.5,0l0,14.6l1.5,0L5,30.4l-5,0V45h49V30.4l-5.1,0L38,14.6l1.5,0V0L9.5,0z"/>
	<g>
		<path class="st2" d="M24.5,5.5L35,32.5c0,0,1.3,3.3,3.5,3.3h-7.6c0,0,0.4,0.1,0.8-0.6c0.2-0.4,0-0.9,0-0.9l-2.4-6h-4.8h-4.8
			l-2.4,6c0,0-0.2,0.5,0,0.9c0.4,0.6,0.8,0.6,0.8,0.6h-7.6c2.2,0,3.5-3.3,3.5-3.3L24.5,5.5z"/>
	</g>
	<path class="st3" d="M24.5,5.4h9.5v3.8H30l10.3,26.5h3.1v3.9H30.6v-3.8H27v7.4h20.2V32.1l-4.5,0l-7.3-19.3h2.3V1.8H24.5H11.3v11.1
		h2.3L6.3,32.1l-4.5,0v11.1H22v-7.4h-3.6v3.8H5.6v-3.9h3.1L19,9.2H15V5.4H24.5z"/>
	<path class="st1" d="M24.5,25.4h3.7l-3.6-9.5l-3.8,9.5H24.5z"/>
	<path class="st3" d="M59.9,45h0.9V0h-0.9V45z"/>
	<g>
		<path class="st3" d="M82.1,29.9v-1.5c-1,1.2-2.5,1.9-4.3,1.9c-1,0-2-0.2-2.8-0.6c-0.8-0.4-1.4-1-1.8-1.8c-0.1-0.3-0.2-0.5-0.3-0.8
			c-0.1-0.3-0.1-0.6-0.2-0.9c0-0.4,0-0.9,0-1.5v-6.4c0-0.6,0-1.1-0.1-1.5c-0.1-0.3-0.1-0.6-0.3-0.8c-0.1-0.2-0.3-0.4-0.6-0.5h4.2
			c-0.3,0.1-0.5,0.3-0.6,0.5c-0.1,0.2-0.2,0.5-0.3,0.8c-0.1,0.4-0.1,0.8-0.1,1.5v6.4c0,0.7,0.1,1.3,0.2,1.7c0.1,0.4,0.3,0.8,0.6,1.1
			c0.3,0.4,0.7,0.7,1.2,0.9c0.5,0.2,1,0.3,1.6,0.3c0.7,0,1.3-0.1,1.8-0.4c0.6-0.3,1-0.6,1.3-1.1c0.2-0.2,0.3-0.5,0.4-0.7
			c0.1-0.2,0.1-0.6,0.1-1v-7.1c0-0.6,0-1.1-0.1-1.5s-0.1-0.6-0.3-0.8c-0.1-0.2-0.3-0.4-0.6-0.5h4.2c-0.3,0.1-0.5,0.3-0.6,0.5
			c-0.1,0.2-0.2,0.5-0.3,0.8c-0.1,0.3-0.1,0.8-0.1,1.5v8.8c0,0.6,0,1.1,0.1,1.5c0.1,0.3,0.2,0.6,0.3,0.8c0.1,0.2,0.3,0.4,0.6,0.5
			H82.1z"/>
		<path class="st3" d="M89.4,19.5v1.8c0.5-0.6,1.1-1.1,1.5-1.3c0.5-0.3,1.1-0.4,1.7-0.4c0.4,0,0.9,0.1,1.3,0.2
			c0.4,0.1,0.8,0.3,1.2,0.6c0.3,0.2,0.6,0.5,0.8,0.8c0.2,0.3,0.3,0.7,0.4,1.1c0.1,0.4,0.1,1,0.1,1.9v3.7c0,0.7,0,1.2,0.1,1.4
			c0.1,0.2,0.3,0.5,0.7,0.8h-3.7c0.3-0.2,0.5-0.4,0.6-0.5c0.1-0.1,0.2-0.3,0.2-0.6c0-0.2,0.1-0.6,0.1-1.1v-3.5c0-0.6,0-1-0.1-1.4
			c-0.1-0.3-0.2-0.6-0.4-0.8c-0.2-0.3-0.5-0.5-0.9-0.7c-0.4-0.2-0.8-0.3-1.3-0.3c-0.4,0-0.8,0.1-1.2,0.3c-0.4,0.2-0.7,0.4-0.9,0.7
			c-0.2,0.3-0.3,0.7-0.3,1.2v4.4c0,0.5,0,0.8,0.1,1.1c0,0.2,0.1,0.4,0.2,0.5c0.1,0.1,0.3,0.3,0.6,0.5h-3.6c0.3-0.2,0.5-0.4,0.6-0.5
			c0.1-0.1,0.2-0.3,0.2-0.5c0-0.2,0-0.6,0-1.1V22c0-0.5,0-0.9,0-1.1c0-0.2-0.1-0.4-0.2-0.5c-0.1-0.1-0.3-0.3-0.6-0.5h1.4
			C88.7,19.9,89.2,19.7,89.4,19.5z"/>
		<path class="st3" d="M101.6,19.5v8.3c0,0.5,0,0.8,0.1,1.1c0,0.2,0.1,0.4,0.2,0.5c0.1,0.1,0.3,0.3,0.6,0.5h-3.6
			c0.3-0.2,0.5-0.4,0.6-0.5c0.1-0.1,0.2-0.3,0.2-0.5c0-0.2,0-0.6,0-1.1V22c0-0.5,0-0.9,0-1.1c0-0.2-0.1-0.4-0.2-0.5
			c-0.1-0.1-0.3-0.3-0.6-0.5h1.5C100.9,19.9,101.3,19.7,101.6,19.5z M100.6,15.8c0.4,0,0.7,0.1,0.9,0.4c0.3,0.3,0.4,0.6,0.4,0.9
			c0,0.4-0.1,0.7-0.4,1c-0.3,0.3-0.6,0.4-1,0.4c-0.4,0-0.7-0.1-1-0.4c-0.3-0.3-0.4-0.6-0.4-1c0-0.4,0.1-0.7,0.4-1
			C99.9,16,100.2,15.8,100.6,15.8z"/>
		<path class="st3" d="M109.4,28.1l2.6-5.8c0.3-0.6,0.4-1,0.4-1.3c0-0.2,0-0.4-0.1-0.6c-0.1-0.1-0.3-0.3-0.6-0.5h3.1l-5,10.9
			c-0.6-0.4-1.1-0.7-1.4-0.9c-0.3-0.2-0.5-0.5-0.7-0.7c-0.2-0.3-0.4-0.6-0.6-1.1l-2.6-5.9c-0.3-0.6-0.4-1-0.6-1.2s-0.3-0.4-0.4-0.5
			c-0.2-0.1-0.5-0.3-0.9-0.6h1.5c0.4,0,0.7,0,0.9-0.1c0.2,0,0.4-0.2,0.7-0.3c0,0.3,0.1,0.7,0.3,1L109.4,28.1z"/>
		<path class="st3" d="M125.4,24.7h-8.1c0,0.8,0.2,1.6,0.6,2.2c0.4,0.6,0.9,1.1,1.5,1.4c0.7,0.3,1.4,0.5,2.3,0.5
			c0.5,0,0.9,0,1.3-0.1c0.4-0.1,0.8-0.2,1.2-0.4c0.4-0.2,0.8-0.4,1.2-0.7l-1.2,2.1c-0.3,0.1-0.7,0.2-1,0.3c-0.3,0.1-0.6,0.1-1,0.2
			c-0.3,0-0.7,0.1-1.1,0.1c-1.2,0-2.3-0.2-3.2-0.7c-1-0.5-1.7-1.1-2.2-1.9c-0.5-0.8-0.8-1.7-0.8-2.8c0-0.5,0.1-1,0.2-1.5
			c0.1-0.5,0.4-1,0.6-1.4c0.3-0.4,0.6-0.8,0.9-1.1c0.5-0.4,1-0.7,1.6-0.9c0.6-0.2,1.3-0.3,2-0.3c0.7,0,1.4,0.1,2,0.4
			c0.6,0.2,1.1,0.6,1.6,1c0.4,0.4,0.8,0.9,1,1.5c0.3,0.6,0.4,1.2,0.4,1.9V24.7z M117.4,23.3h5.7c-0.3-1.6-1.2-2.4-2.8-2.4
			c-0.7,0-1.4,0.2-1.9,0.6C117.9,21.9,117.6,22.5,117.4,23.3z"/>
		<path class="st3" d="M130.4,29.9h-3.6c0.3-0.2,0.5-0.4,0.6-0.5c0.1-0.1,0.2-0.3,0.2-0.5c0-0.2,0-0.6,0-1.1V22c0-0.5,0-0.9,0-1.1
			c0-0.2-0.1-0.4-0.2-0.5c-0.1-0.1-0.3-0.3-0.6-0.5h1.5c0.6,0,1-0.1,1.3-0.4v1.8c0.3-0.5,0.7-1,1.1-1.2c0.4-0.3,1-0.4,1.5-0.4
			c0.2,0,0.5,0,0.8,0.1v2c-0.2-0.2-0.6-0.4-1-0.4c-0.4,0-0.8,0.1-1.1,0.2c-0.3,0.2-0.6,0.4-0.8,0.7c-0.3,0.4-0.5,1.1-0.5,2v3.6
			c0,0.5,0,0.8,0.1,1.1c0,0.2,0.1,0.4,0.2,0.5C129.9,29.5,130.1,29.7,130.4,29.9z"/>
		<path class="st3" d="M140.9,19.9v1.9c-0.9-0.6-1.8-0.8-2.7-0.8c-0.6,0-1.1,0.1-1.5,0.3c-0.4,0.2-0.6,0.5-0.6,0.9
			c0,0.2,0.1,0.4,0.2,0.6c0.1,0.2,0.4,0.3,0.7,0.5c0.3,0.1,0.8,0.3,1.4,0.5c0.8,0.3,1.4,0.5,1.8,0.7c0.3,0.2,0.7,0.4,0.9,0.6
			c0.6,0.5,0.9,1.2,0.9,1.9c0,0.7-0.2,1.3-0.6,1.8c-0.4,0.5-1,0.9-1.7,1.2c-0.7,0.3-1.6,0.4-2.6,0.4c-0.6,0-1.1,0-1.5-0.1
			c-0.4-0.1-0.9-0.2-1.5-0.4l-0.8-2.2c0.6,0.3,1.1,0.6,1.5,0.8c0.4,0.2,0.9,0.3,1.3,0.4c0.4,0.1,0.9,0.1,1.3,0.1
			c0.7,0,1.2-0.1,1.7-0.4c0.5-0.3,0.7-0.7,0.7-1.1c0-0.4-0.2-0.8-0.5-1c-0.3-0.2-1-0.5-2.1-0.9c-0.9-0.3-1.5-0.6-2-0.9
			c-0.5-0.3-0.8-0.6-1-0.9c-0.2-0.3-0.3-0.7-0.3-1.2c0-0.6,0.2-1.1,0.5-1.6c0.3-0.4,0.8-0.8,1.5-1c0.6-0.2,1.4-0.3,2.3-0.3
			C139.4,19.6,140.2,19.7,140.9,19.9z"/>
		<path class="st3" d="M145.9,19.5v8.3c0,0.5,0,0.8,0.1,1.1c0,0.2,0.1,0.4,0.2,0.5c0.1,0.1,0.3,0.3,0.6,0.5h-3.6
			c0.3-0.2,0.5-0.4,0.6-0.5c0.1-0.1,0.2-0.3,0.2-0.5c0-0.2,0-0.6,0-1.1V22c0-0.5,0-0.9,0-1.1c0-0.2-0.1-0.4-0.2-0.5
			c-0.1-0.1-0.3-0.3-0.6-0.5h1.5C145.2,19.9,145.7,19.7,145.9,19.5z M144.9,15.8c0.4,0,0.7,0.1,0.9,0.4c0.3,0.3,0.4,0.6,0.4,0.9
			c0,0.4-0.1,0.7-0.4,1c-0.3,0.3-0.6,0.4-1,0.4c-0.4,0-0.7-0.1-1-0.4c-0.3-0.3-0.4-0.6-0.4-1c0-0.4,0.1-0.7,0.4-1
			C144.2,16,144.5,15.8,144.9,15.8z"/>
		<path class="st3" d="M151,21.3V26c0,0.6,0,1.1,0.1,1.3c0.1,0.3,0.2,0.5,0.3,0.7c0.4,0.5,1,0.7,1.7,0.7c0.3,0,0.6-0.1,0.9-0.2
			l-1.1,1.5c-0.3,0.1-0.5,0.1-0.8,0.1c-0.9,0-1.6-0.3-2.2-1c-0.2-0.2-0.4-0.5-0.5-0.7c-0.1-0.2-0.2-0.5-0.2-0.9
			c0-0.4-0.1-0.9-0.1-1.6v-4.8h-1.5v-0.8c0.8-0.1,1.4-0.4,1.8-1c0.5-0.6,0.8-1.5,0.8-2.7v-0.3h0.9v3.3h1.7c0.7,0,1.1,0,1.3-0.1v2
			c-0.2-0.1-0.3-0.3-0.5-0.3c-0.2-0.1-0.5-0.1-0.8-0.1H151z"/>
		<path class="st3" d="M161.2,28l2.3-5.8c0.2-0.5,0.3-1,0.3-1.3c0-0.4-0.2-0.7-0.6-1h3.1L161.6,31c-0.3,0.6-0.5,1.1-0.8,1.5
			c-0.2,0.4-0.6,0.7-0.9,1c-0.4,0.3-0.8,0.6-1.3,0.7c-0.5,0.2-1,0.2-1.6,0.2c-0.4,0-0.8,0-1.2-0.1c-0.4-0.1-0.9-0.2-1.5-0.4l2-1.4
			c0.4,0.2,0.8,0.4,1.2,0.4c0.5,0,1-0.2,1.5-0.6c0.4-0.4,0.8-1,1.1-1.9l0.2-0.6c-0.3-0.3-0.4-0.4-0.5-0.6c-0.1-0.1-0.2-0.2-0.3-0.4
			c-0.1-0.1-0.2-0.4-0.3-0.7l-2.9-6.3c-0.3-0.6-0.5-1.1-0.8-1.3c-0.2-0.3-0.5-0.5-0.9-0.6l2.1-0.1c0.3,0,0.6,0,0.7,0.1
			c0.1,0,0.3,0.2,0.5,0.6L161.2,28z"/>
		<path class="st3" d="M175.6,18.3v9.8c1,0.1,2,0.2,3,0.2c0.8,0,1.5-0.1,2.1-0.3c0.6-0.2,1.2-0.5,1.9-1.1l-1.2,2.9h-9
			c0.3-0.1,0.5-0.3,0.6-0.5c0.1-0.2,0.2-0.5,0.3-0.8c0.1-0.3,0.1-0.8,0.1-1.5v-8.8c0-0.6,0-1.1-0.1-1.5c-0.1-0.3-0.1-0.6-0.3-0.8
			c-0.1-0.2-0.3-0.4-0.6-0.5h4.2c-0.3,0.1-0.5,0.3-0.6,0.5c-0.1,0.2-0.2,0.5-0.3,0.8C175.7,17.2,175.6,17.7,175.6,18.3z"/>
		<path class="st3" d="M186.1,19.5v8.3c0,0.5,0,0.8,0.1,1.1c0,0.2,0.1,0.4,0.2,0.5c0.1,0.1,0.3,0.3,0.6,0.5h-3.6
			c0.3-0.2,0.5-0.4,0.6-0.5c0.1-0.1,0.2-0.3,0.2-0.5c0-0.2,0-0.6,0-1.1V22c0-0.5,0-0.9,0-1.1c0-0.2-0.1-0.4-0.2-0.5
			c-0.1-0.1-0.3-0.3-0.6-0.5h1.5C185.4,19.9,185.8,19.7,186.1,19.5z M185.1,15.8c0.4,0,0.7,0.1,0.9,0.4c0.3,0.3,0.4,0.6,0.4,0.9
			c0,0.4-0.1,0.7-0.4,1c-0.3,0.3-0.6,0.4-1,0.4c-0.4,0-0.7-0.1-1-0.4c-0.3-0.3-0.4-0.6-0.4-1c0-0.4,0.1-0.7,0.4-1
			C184.4,16,184.7,15.8,185.1,15.8z"/>
		<path class="st3" d="M191.4,21.7l1.2-1.8c0.3-0.1,0.5-0.2,0.8-0.2c0.2,0,0.5-0.1,0.8-0.1c0.7,0,1.3,0.1,1.8,0.4
			c0.6,0.3,1.1,0.6,1.5,1.1c0.4,0.5,0.8,1,1,1.6c0.2,0.6,0.3,1.3,0.3,2c0,1.1-0.3,2.1-0.8,2.9c-0.5,0.8-1.3,1.5-2.2,2
			c-1,0.5-2,0.7-3.3,0.7c-1.7,0-3.1-0.1-4.2-0.4c0.3-0.2,0.4-0.4,0.5-0.6c0.1-0.2,0.1-0.5,0.1-1V17.7c0-0.5,0-0.9,0-1.1
			c0-0.2-0.1-0.4-0.2-0.5c-0.1-0.1-0.3-0.3-0.6-0.5h1.5c0.6,0,1-0.1,1.3-0.4v13.3c0.7,0.2,1.3,0.3,1.9,0.3c1.1,0,2.1-0.3,2.7-1
			c0.7-0.7,1-1.5,1-2.7c0-0.8-0.1-1.4-0.4-2c-0.3-0.6-0.7-1-1.1-1.4c-0.5-0.3-1.1-0.5-1.7-0.5c-0.3,0-0.6,0-0.9,0.1
			C192.1,21.4,191.8,21.5,191.4,21.7z"/>
		<path class="st3" d="M203.7,29.9h-3.6c0.3-0.2,0.5-0.4,0.6-0.5c0.1-0.1,0.2-0.3,0.2-0.5c0-0.2,0-0.6,0-1.1V22c0-0.5,0-0.9,0-1.1
			c0-0.2-0.1-0.4-0.2-0.5c-0.1-0.1-0.3-0.3-0.6-0.5h1.5c0.6,0,1-0.1,1.3-0.4v1.8c0.3-0.5,0.7-1,1.1-1.2c0.4-0.3,1-0.4,1.5-0.4
			c0.2,0,0.5,0,0.8,0.1v2c-0.2-0.2-0.6-0.4-1-0.4c-0.4,0-0.8,0.1-1.1,0.2c-0.3,0.2-0.6,0.4-0.8,0.7c-0.3,0.4-0.5,1.1-0.5,2v3.6
			c0,0.5,0,0.8,0.1,1.1c0,0.2,0.1,0.4,0.2,0.5C203.2,29.5,203.4,29.7,203.7,29.9z"/>
		<path class="st3" d="M213.1,27.3v-2.8c-0.3,0.1-0.5,0.2-0.7,0.3c-0.2,0.1-0.4,0.1-0.6,0.2c-0.2,0.1-0.7,0.2-1.5,0.4
			c-1.1,0.3-1.6,0.8-1.6,1.7c0,0.6,0.2,1,0.6,1.3c0.4,0.3,1,0.5,1.7,0.5c0.5,0,1-0.1,1.6-0.3l-1.3,1.6c-0.4,0.1-0.8,0.1-1.2,0.1
			c-1.1,0-2-0.3-2.6-0.8c-0.7-0.7-1.1-1.5-1.1-2.4c0-0.5,0.1-0.9,0.3-1.3c0.2-0.4,0.5-0.7,0.9-0.9c0.5-0.3,1.5-0.6,2.9-0.8
			c1-0.2,1.7-0.4,2-0.6c0.3-0.2,0.5-0.5,0.5-0.9c0-0.3-0.1-0.5-0.3-0.7c-0.2-0.2-0.4-0.4-0.7-0.5c-0.3-0.1-0.7-0.2-1.1-0.2
			c-0.5,0-0.9,0.1-1.3,0.2c-0.4,0.1-1,0.3-1.7,0.7l1.5-2.2c0.5-0.1,1-0.1,1.5-0.1c1.9,0,3.1,0.5,3.7,1.5c0.2,0.3,0.3,0.6,0.4,0.9
			c0.1,0.3,0.1,0.9,0.1,1.7v2.8c0,0.6,0,1,0.1,1.2c0.1,0.2,0.2,0.4,0.5,0.6c0.3,0.2,0.7,0.3,1.3,0.4l-1,1.4c-0.5,0-0.9-0.1-1.2-0.2
			c-0.3-0.1-0.6-0.2-0.8-0.3c-0.3-0.2-0.6-0.5-0.7-0.8C213.2,28.5,213.1,28,213.1,27.3z"/>
		<path class="st3" d="M221.3,29.9h-3.6c0.3-0.2,0.5-0.4,0.6-0.5c0.1-0.1,0.2-0.3,0.2-0.5c0-0.2,0-0.6,0-1.1V22c0-0.5,0-0.9,0-1.1
			c0-0.2-0.1-0.4-0.2-0.5c-0.1-0.1-0.3-0.3-0.6-0.5h1.5c0.6,0,1-0.1,1.3-0.4v1.8c0.3-0.5,0.7-1,1.1-1.2c0.4-0.3,1-0.4,1.5-0.4
			c0.2,0,0.5,0,0.8,0.1v2c-0.2-0.2-0.6-0.4-1-0.4c-0.4,0-0.8,0.1-1.1,0.2c-0.3,0.2-0.6,0.4-0.8,0.7c-0.3,0.4-0.5,1.1-0.5,2v3.6
			c0,0.5,0,0.8,0.1,1.1c0,0.2,0.1,0.4,0.2,0.5C220.9,29.5,221.1,29.7,221.3,29.9z"/>
		<path class="st3" d="M227.8,19.5v8.3c0,0.5,0,0.8,0.1,1.1c0,0.2,0.1,0.4,0.2,0.5c0.1,0.1,0.3,0.3,0.6,0.5H225
			c0.3-0.2,0.5-0.4,0.6-0.5c0.1-0.1,0.2-0.3,0.2-0.5c0-0.2,0-0.6,0-1.1V22c0-0.5,0-0.9,0-1.1c0-0.2-0.1-0.4-0.2-0.5
			c-0.1-0.1-0.3-0.3-0.6-0.5h1.5C227.1,19.9,227.5,19.7,227.8,19.5z M226.8,15.8c0.4,0,0.7,0.1,0.9,0.4c0.3,0.3,0.4,0.6,0.4,0.9
			c0,0.4-0.1,0.7-0.4,1c-0.3,0.3-0.6,0.4-1,0.4c-0.4,0-0.7-0.1-1-0.4c-0.3-0.3-0.4-0.6-0.4-1c0-0.4,0.1-0.7,0.4-1
			C226.1,16,226.4,15.8,226.8,15.8z"/>
		<path class="st3" d="M240.2,24.7h-8.1c0,0.8,0.2,1.6,0.6,2.2s0.9,1.1,1.5,1.4c0.7,0.3,1.4,0.5,2.3,0.5c0.5,0,0.9,0,1.3-0.1
			c0.4-0.1,0.8-0.2,1.2-0.4c0.4-0.2,0.8-0.4,1.2-0.7l-1.2,2.1c-0.3,0.1-0.7,0.2-1,0.3c-0.3,0.1-0.6,0.1-1,0.2
			c-0.3,0-0.7,0.1-1.1,0.1c-1.2,0-2.3-0.2-3.2-0.7c-1-0.5-1.7-1.1-2.2-1.9c-0.5-0.8-0.8-1.7-0.8-2.8c0-0.5,0.1-1,0.2-1.5
			c0.1-0.5,0.4-1,0.6-1.4c0.3-0.4,0.6-0.8,0.9-1.1c0.5-0.4,1-0.7,1.6-0.9c0.6-0.2,1.3-0.3,2-0.3c0.7,0,1.4,0.1,2,0.4
			c0.6,0.2,1.1,0.6,1.6,1c0.4,0.4,0.8,0.9,1,1.5c0.3,0.6,0.4,1.2,0.4,1.9V24.7z M232.2,23.3h5.7c-0.3-1.6-1.2-2.4-2.8-2.4
			c-0.7,0-1.4,0.2-1.9,0.6C232.7,21.9,232.4,22.5,232.2,23.3z"/>
		<path class="st3" d="M248.8,19.9v1.9c-0.9-0.6-1.8-0.8-2.7-0.8c-0.6,0-1.1,0.1-1.5,0.3c-0.4,0.2-0.6,0.5-0.6,0.9
			c0,0.2,0.1,0.4,0.2,0.6c0.1,0.2,0.4,0.3,0.7,0.5c0.3,0.1,0.8,0.3,1.4,0.5c0.8,0.3,1.4,0.5,1.8,0.7s0.7,0.4,0.9,0.6
			c0.6,0.5,0.9,1.2,0.9,1.9c0,0.7-0.2,1.3-0.6,1.8c-0.4,0.5-1,0.9-1.7,1.2c-0.7,0.3-1.6,0.4-2.6,0.4c-0.6,0-1.1,0-1.5-0.1
			c-0.4-0.1-0.9-0.2-1.5-0.4l-0.8-2.2c0.6,0.3,1.1,0.6,1.5,0.8c0.4,0.2,0.9,0.3,1.3,0.4c0.4,0.1,0.9,0.1,1.3,0.1
			c0.7,0,1.2-0.1,1.7-0.4c0.5-0.3,0.7-0.7,0.7-1.1c0-0.4-0.2-0.8-0.5-1c-0.3-0.2-1-0.5-2.1-0.9c-0.9-0.3-1.5-0.6-2-0.9
			c-0.5-0.3-0.8-0.6-1-0.9c-0.2-0.3-0.3-0.7-0.3-1.2c0-0.6,0.2-1.1,0.5-1.6c0.3-0.4,0.8-0.8,1.5-1c0.6-0.2,1.4-0.3,2.3-0.3
			C247.3,19.6,248.1,19.7,248.8,19.9z"/>
	</g>
</g>
<path class="st0" d="z"/>
</svg>
