<svg xmlns="http://www.w3.org/2000/svg" width="250" height="25" viewBox="426.493 -321.163 250 25" enable-background="new 426.493 -321.163 250 25"><style type="text/css">.st0{display:none;fill:#324D6B;} .st1{fill:#001F5B;} .st2{fill:#FFFFFF;} .st3{fill:#C3002F;} .st4{fill:#002147;} .st5{fill:none;stroke:#231F20;stroke-miterlimit:10;} .st6{fill:none;stroke:#FFFFFF;stroke-miterlimit:10;} .st7{fill:#BD2036;} .st8{fill:#00275B;} .st9{fill:#324D6B;}</style><path class="st2" d="M436.05-303.768c0 .704.064 1.228.19 1.566.125.338.335.643.627.912h-3.776c.298-.27.51-.574.632-.912.124-.34.185-.862.185-1.566v-9.98h-1.113c-.763 0-1.383.06-1.858.18-.474.122-.855.317-1.137.583l.68-2.295h9.83l-.644 2.255c-.203-.245-.474-.43-.807-.547-.335-.117-.755-.176-1.262-.176h-1.548v9.98zM443.46-303.438c0 .615.052 1.073.157 1.37.108.296.29.562.55.795h-3.303c.252-.233.433-.5.543-.795.108-.297.164-.755.164-1.37v-7.92c0-.616-.054-1.072-.163-1.366-.11-.294-.29-.556-.543-.787h3.302c-.26.23-.44.492-.55.786-.104.294-.157.75-.157 1.366v2.74h6.48v-2.74c0-.616-.052-1.072-.16-1.366-.105-.294-.29-.556-.547-.787h3.303c-.253.23-.435.492-.543.786-.11.294-.165.75-.165 1.366v7.92c0 .615.053 1.073.16 1.37.106.296.29.562.547.795h-3.303c.26-.233.442-.5.548-.795.107-.297.16-.755.16-1.37v-3.77h-6.482v3.77zM454.138-301.273c.254-.233.435-.5.544-.797.108-.295.165-.754.165-1.37v-7.91c0-.618-.056-1.077-.165-1.37-.11-.296-.29-.56-.544-.79h6.594v1.934c-.293-.24-.62-.41-.97-.518-.352-.105-.76-.16-1.22-.16-.237 0-.503.02-.797.06-.295.036-.627.096-.996.172v3.448h2.955v1.776c-.14-.165-.327-.282-.564-.348-.237-.07-.672-.104-1.303-.104h-1.088v4.39c.455.067.87.12 1.238.154.37.035.69.054.96.054.616 0 1.193-.083 1.736-.25.542-.167 1.078-.422 1.603-.765l-.84 2.395h-7.31zM477.907-301.244v-1.054c-.67.487-1.345.85-2.02 1.092-.685.237-1.375.358-2.07.358-.798 0-1.512-.134-2.137-.4s-1.164-.667-1.618-1.203c-.355-.42-.61-.91-.765-1.47-.154-.556-.232-1.308-.232-2.25v-6.548c0-.702-.062-1.22-.18-1.555-.125-.334-.328-.633-.616-.894h3.742c-.29.26-.494.56-.615.894-.12.334-.18.853-.18 1.555v6.117c0 .954.045 1.665.136 2.126.092.46.247.83.464 1.102.262.327.612.574 1.05.738.436.163.956.245 1.563.245.497 0 .974-.073 1.406-.225.434-.15.817-.37 1.146-.656.29-.242.494-.555.622-.94.124-.384.187-.906.187-1.57v-6.938c0-.73-.06-1.256-.178-1.58-.12-.324-.326-.613-.617-.868h3.77c-.29.255-.498.56-.625.913-.125.354-.187.866-.187 1.535v9.016c0 .7.062 1.218.187 1.555.127.337.334.637.625.903h-2.858zM494.118-313.51c-.26.23-.44.492-.55.786-.106.292-.158.75-.158 1.364v10.37c-.422-.012-.822-.15-1.2-.414-.376-.264-.85-.77-1.42-1.508l-6.223-7.963v7.435c0 .642.05 1.104.154 1.393.106.29.286.547.54.774h-2.735c.255-.233.437-.5.545-.797.11-.295.164-.753.164-1.37v-7.92c0-.615-.055-1.072-.164-1.364-.11-.294-.29-.556-.545-.787h2.448l7.13 9.19v-7.04c0-.615-.053-1.072-.162-1.364-.11-.294-.29-.556-.544-.787h2.722zM498.687-303.44c0 .617.05 1.075.16 1.37.106.298.287.563.546.797h-3.304c.258-.233.44-.5.547-.797.106-.295.16-.753.16-1.37v-7.92c0-.615-.054-1.072-.16-1.364-.106-.294-.29-.556-.548-.787h3.303c-.26.23-.44.492-.547.786-.107.292-.16.75-.16 1.364v7.92zM506.39-300.962c-.514-.135-.954-.43-1.32-.885-.362-.456-.697-1.136-1.006-2.042l-2.438-7.125c-.198-.588-.385-1.066-.562-1.436-.175-.373-.374-.726-.593-1.062l2.493.008c.012.204.03.39.06.56.03.17.066.33.112.482l2.934 8.758 2.775-7.294c.08-.225.146-.448.195-.676.048-.225.076-.43.076-.62 0-.165-.05-.34-.14-.524-.094-.186-.248-.415-.467-.693h2.76l-4.88 12.548zM512.114-301.273c.252-.233.433-.5.543-.797.11-.295.164-.754.164-1.37v-7.91c0-.618-.054-1.077-.163-1.37-.11-.296-.29-.56-.543-.79h6.582v1.934c-.292-.24-.612-.41-.964-.518-.35-.105-.755-.16-1.218-.16-.235 0-.502.02-.795.06-.295.036-.627.096-.997.172v3.448h2.953v1.776c-.138-.165-.324-.282-.563-.348-.235-.07-.672-.104-1.303-.104h-1.086v4.39c.457.067.87.12 1.238.154.372.035.69.054.962.054.61 0 1.184-.083 1.723-.25.54-.167 1.072-.422 1.6-.765l-.843 2.395h-7.29zM523.68-303.438c0 .615.052 1.073.16 1.37.104.296.288.562.548.795h-3.305c.254-.233.434-.5.544-.795.11-.297.165-.755.165-1.37v-7.917c0-.617-.053-1.074-.165-1.368-.11-.294-.29-.557-.544-.788h4.17c1.19 0 2.15.29 2.88.865.732.576 1.1 1.325 1.1 2.247 0 .668-.22 1.26-.66 1.772-.44.51-1.122.96-2.046 1.348l3.13 4.237c.184.25.407.516.666.798.262.284.558.575.896.882l-.94.087h-.148c-.437 0-.865-.116-1.282-.353-.416-.232-.768-.557-1.058-.968l-3.584-5.023c1.068-.24 1.847-.572 2.342-.99.492-.42.74-.962.74-1.628 0-.617-.21-1.12-.636-1.51-.423-.388-.98-.58-1.667-.58-.156 0-.344.013-.562.04-.218.025-.47.066-.744.118v8.73zM531.805-301.547l-.576-2.22c.702.475 1.386.83 2.047 1.06.658.234 1.313.352 1.96.352.827 0 1.493-.183 2.002-.542.503-.362.754-.83.754-1.406 0-.164-.024-.328-.077-.495-.053-.163-.124-.318-.226-.466-.22-.336-.96-.814-2.22-1.438-.318-.15-.563-.273-.736-.36-1.172-.6-1.98-1.15-2.42-1.658-.437-.505-.656-1.104-.656-1.798 0-.993.4-1.782 1.204-2.366.8-.587 1.892-.88 3.285-.88.4 0 .842.027 1.327.08.48.053 1 .135 1.563.248v2.056c-.496-.383-.998-.67-1.5-.858-.51-.188-1.036-.282-1.58-.282-.69 0-1.245.15-1.66.45-.422.3-.63.69-.63 1.173 0 .43.163.81.493 1.138.326.33 1.067.772 2.217 1.325.065.03.164.076.297.14.98.453 1.704.87 2.184 1.25.36.285.638.628.836 1.033.202.404.3.835.3 1.296 0 1.05-.474 1.94-1.422 2.674-.948.73-2.14 1.097-3.565 1.097-.46 0-.948-.05-1.476-.15-.525-.102-1.102-.252-1.725-.452zM544.225-303.44c0 .617.053 1.075.16 1.37.107.298.288.563.548.797h-3.302c.26-.233.443-.5.55-.797.106-.295.16-.753.16-1.37v-7.92c0-.615-.054-1.072-.16-1.364-.106-.294-.29-.556-.55-.787h3.303c-.26.23-.44.492-.55.786-.105.292-.158.75-.158 1.364v7.92zM600.78-317.536l1.11 2.71 4.22 10.574c.468 1.176.834 2.327 1.988 2.922v.063h-4.162v-.063c1-.45.832-.677.29-2.116l-1.098-2.903h-5.143l-1.057 2.904c-.427 1.153-.568 1.746.405 2.116v.063H593.6v-.063c1.176-.595 1.523-1.746 1.97-2.922l5.21-13.2v-.084zm-.236 4.464l-2.032 5.198h4.026l-1.994-5.198zM575.046-300.972c-.92 0-1.785-.148-2.6-.445-.81-.3-1.507-.725-2.093-1.282-.613-.584-1.088-1.277-1.42-2.073-.332-.796-.498-1.633-.498-2.507 0-.688.108-1.354.316-2 .212-.647.522-1.25.927-1.81.628-.863 1.408-1.526 2.336-1.99.93-.467 1.94-.7 3.032-.7.938 0 1.813.15 2.626.447.814.298 1.51.725 2.095 1.284.626.588 1.1 1.282 1.433 2.085.328.802.494 1.666.494 2.595 0 .853-.186 1.688-.556 2.505-.37.816-.892 1.54-1.562 2.166-.6.57-1.286 1-2.057 1.29-.766.29-1.59.438-2.47.438zm.07-11.508c-1.344 0-2.448.466-3.32 1.4-.868.934-1.305 2.128-1.305 3.576 0 1.5.433 2.742 1.294 3.73.86.99 1.937 1.485 3.228 1.485 1.337 0 2.438-.467 3.31-1.403.866-.938 1.302-2.135 1.302-3.59 0-1.498-.428-2.738-1.29-3.723-.863-.982-1.935-1.474-3.22-1.474zM585.295-303.426c0 .617.052 1.073.157 1.367.11.295.293.56.553.793H582.7c.255-.232.435-.498.543-.792.108-.293.165-.75.165-1.366v-7.91c0-.618-.057-1.077-.165-1.372-.108-.293-.288-.557-.544-.79h6.604v1.935c-.3-.238-.62-.408-.973-.517-.35-.107-.76-.16-1.222-.16-.242 0-.508.02-.803.057-.294.04-.628.098-.995.175v3.446h2.966v1.777c-.14-.164-.33-.282-.567-.35-.24-.067-.678-.1-1.314-.1h-1.103v3.81h.002zM610.962-303.424c0 .615.052 1.073.16 1.365.106.295.29.56.547.793h-3.306c.255-.232.436-.498.543-.792.112-.29.167-.75.167-1.364v-7.918c0-.617-.055-1.074-.167-1.368-.107-.293-.288-.557-.543-.787h4.17c1.192 0 2.153.29 2.884.865.73.575 1.096 1.325 1.096 2.25 0 .667-.218 1.258-.658 1.77-.44.512-1.122.96-2.047 1.35l3.128 4.234c.185.254.407.52.67.8.26.282.553.57.892.877l-.935.084h-.147c-.44 0-.87-.115-1.283-.35-.42-.233-.77-.555-1.06-.962l-3.588-5.024c1.07-.24 1.85-.57 2.345-.99.49-.423.74-.964.74-1.627 0-.618-.214-1.12-.64-1.51-.42-.385-.975-.58-1.665-.58-.156 0-.343.014-.562.04-.22.025-.468.065-.743.12v8.726zM622.125-303.426c0 .617.053 1.075.156 1.367.11.295.293.56.554.793h-3.304c.256-.232.44-.498.546-.792.108-.29.16-.75.16-1.366v-7.92c0-.616-.052-1.072-.16-1.366-.106-.292-.29-.555-.546-.785h3.304c-.26.23-.444.493-.553.785-.103.294-.155.75-.155 1.366v7.92zM634.35-303.555l-.878 2.288h-9.397l6.412-10.654c-.48-.124-.93-.216-1.355-.274-.425-.06-.82-.09-1.185-.09-.53 0-1.045.068-1.54.2-.49.134-.997.344-1.512.634l.83-2.047h7.817l-6.413 10.653c.712.085 1.31.144 1.798.178.483.037.906.055 1.26.055.83 0 1.592-.08 2.28-.237.687-.157 1.312-.394 1.882-.708zM641.29-300.972c-.92 0-1.787-.148-2.6-.445-.815-.3-1.512-.725-2.093-1.282-.615-.584-1.09-1.277-1.422-2.073-.332-.796-.497-1.633-.497-2.507 0-.688.104-1.354.317-2 .21-.647.518-1.25.92-1.81.632-.863 1.413-1.526 2.34-1.99.928-.467 1.942-.7 3.035-.7.936 0 1.81.15 2.622.447.812.298 1.51.725 2.096 1.284.625.588 1.1 1.282 1.433 2.085.327.802.493 1.666.493 2.595 0 .853-.185 1.688-.556 2.505-.37.816-.89 1.54-1.56 2.166-.602.57-1.287 1-2.06 1.29-.765.29-1.59.438-2.466.438zm.066-11.508c-1.346 0-2.448.466-3.32 1.4-.87.934-1.306 2.128-1.306 3.576 0 1.5.433 2.742 1.295 3.73.86.99 1.936 1.485 3.226 1.485 1.335 0 2.44-.467 3.312-1.403.87-.938 1.305-2.135 1.305-3.59 0-1.498-.43-2.738-1.292-3.723-.86-.985-1.937-1.474-3.22-1.474zM660.504-313.497c-.26.23-.444.493-.55.785-.106.294-.16.75-.16 1.366v10.36c-.42-.012-.82-.147-1.2-.41-.377-.264-.85-.764-1.42-1.5l-6.22-7.965v7.434c0 .64.05 1.106.154 1.39.104.286.282.544.537.77h-2.732c.253-.232.433-.498.544-.792.108-.292.167-.75.167-1.367v-7.92c0-.616-.06-1.072-.167-1.366-.11-.293-.29-.556-.544-.786h2.445l7.13 9.19v-7.04c0-.615-.055-1.07-.164-1.365-.108-.293-.29-.556-.543-.786h2.724zM663.32-302.914c-.054.124-.094.25-.12.383-.024.13-.036.267-.036.406 0 .117.04.244.125.384.082.142.215.298.4.474h-2.844c.235-.16.447-.388.637-.674.188-.285.38-.677.575-1.177l3.394-8.73c.07-.166.12-.326.157-.484.032-.16.05-.3.05-.424 0-.14-.034-.27-.097-.388-.068-.118-.177-.236-.328-.354h2.742l3.837 10.256c.18.465.372.84.577 1.13.21.29.47.572.796.845h-3.453l.04-.044c.318-.336.478-.585.478-.742 0-.188-.068-.462-.207-.824-.017-.06-.034-.104-.043-.133l-1.034-2.827h-4.494l-1.152 2.923zm1.63-4.154h3.555l-1.706-4.728-1.85 4.728zM555.924-313.51l3.137 5.336 2.113-3.474c.128-.21.225-.404.29-.577.065-.174.102-.322.102-.447 0-.14-.04-.28-.126-.417-.086-.138-.212-.28-.39-.42h2.822l-4.144 6.737v3.342c0 .614.056 1.074.163 1.37.114.3.297.562.55.797h-3.324c.26-.234.444-.498.55-.798.105-.296.16-.756.16-1.37l.004-3.378-2.834-4.668c-.285-.417-.496-.48-.77-.58-.294-.1-.787-.112-1.233-.112h-1.35v8.737c0 .614.05 1.074.16 1.37.11.3.293.562.547.797h-3.308c.257-.234.44-.498.55-.798.104-.296.157-.756.157-1.37v-8.738h-.97c-.67 0-1.213.053-1.63.16-.415.104-.748.274-1 .51l.6-2.012h9.174z"/></svg>