<svg xmlns="http://www.w3.org/2000/svg" width="360" height="124" viewBox="372.488 0 360 124" enable-background="new 372.488 0 360 124"><style type="text/css">.st0{display:none;fill:#324D6B;} .st1{fill:#001F5B;} .st2{fill:#FFFFFF;} .st3{fill:#C3002F;} .st4{fill:#002147;} .st5{fill:none;stroke:#231F20;stroke-miterlimit:10;} .st6{fill:none;stroke:#FFFFFF;stroke-miterlimit:10;} .st7{fill:#BD2036;} .st8{fill:#00275B;} .st9{fill:#324D6B;}</style><path class="st0" d="M371.654 0h360.834v124H371.654z"/><path class="st2" d="M380.538 46.568l.757 1.834 2.88 7.157c.317.794.568 1.574 1.356 1.976v.043h-2.84v-.044c.68-.306.568-.458.197-1.432l-.75-1.967h-3.506l-.72 1.967c-.29.78-.387 1.18.277 1.432v.043h-2.548v-.044c.8-.402 1.04-1.182 1.342-1.977l3.556-8.935v-.057zm-.162 3.022l-1.386 3.518h2.746l-1.36-3.518zm7.106 6.53c0 .417.037.726.11.924.07.198.197.378.373.535h-2.254c.174-.158.297-.338.37-.536.077-.2.114-.508.114-.924v-5.36c0-.417-.036-.726-.113-.925-.073-.2-.196-.377-.37-.532h2.846c.812 0 1.466.195 1.966.585.497.39.747.896.747 1.522 0 .453-.15.852-.45 1.2-.3.345-.766.65-1.397.91l2.136 2.87c.125.17.275.35.454.54.178.19.378.386.61.593l-.64.058h-.1c-.3 0-.59-.077-.875-.235-.286-.158-.526-.375-.723-.652l-2.447-3.4c.73-.164 1.26-.388 1.598-.672.336-.284.505-.65.505-1.1 0-.418-.145-.76-.435-1.02-.288-.263-.667-.395-1.136-.395-.107 0-.235.01-.383.027-.15.018-.32.045-.51.08l.002 5.908zm7.616 0c0 .417.037.726.107.925.074.198.2.378.376.535h-2.253c.175-.157.3-.337.373-.535.073-.2.11-.508.11-.926v-5.362c0-.418-.037-.726-.11-.925-.073-.198-.198-.375-.373-.53h2.254c-.176.155-.3.332-.375.53-.07.2-.107.507-.107.925v5.36zm8.34-.088l-.598 1.55h-6.412l4.375-7.213c-.327-.084-.635-.146-.926-.186-.29-.04-.56-.06-.807-.06-.364 0-.714.045-1.05.135-.337.09-.68.232-1.032.427l.567-1.384h5.332l-4.374 7.21c.486.057.894.097 1.227.12.33.025.617.037.856.037.568 0 1.088-.053 1.557-.16.47-.106.896-.266 1.284-.478zm4.733 1.748c-.628 0-1.218-.1-1.77-.302-.558-.202-1.033-.49-1.43-.868-.42-.397-.742-.866-.97-1.405-.226-.538-.338-1.104-.338-1.697 0-.465.07-.917.216-1.354.144-.437.355-.845.63-1.224.43-.584.962-1.033 1.594-1.348.633-.314 1.325-.47 2.07-.47.64 0 1.235.1 1.79.3.554.2 1.03.49 1.43.87.425.397.75.867.975 1.41.224.542.336 1.128.336 1.756 0 .577-.125 1.142-.378 1.695s-.607 1.043-1.065 1.467c-.41.385-.877.675-1.402.873-.526.197-1.09.297-1.687.297zm.046-7.79c-.916 0-1.67.316-2.264.948-.593.632-.89 1.44-.89 2.42 0 1.015.294 1.856.883 2.526.587.67 1.32 1.005 2.2 1.005.91 0 1.665-.318 2.26-.952.592-.634.89-1.444.89-2.43 0-1.014-.295-1.854-.882-2.52-.59-.665-1.322-.997-2.197-.997zm13.062-.687c-.178.155-.302.332-.373.53-.075.2-.11.507-.11.925v7.013c-.288-.008-.56-.1-.818-.277-.258-.178-.58-.516-.97-1.016l-4.243-5.39v5.033c0 .433.035.748.107.94.072.194.193.368.367.52h-1.864c.17-.156.295-.336.37-.534.074-.2.113-.508.113-.926v-5.36c0-.42-.04-.727-.113-.926-.076-.198-.2-.375-.37-.53h1.667l4.865 6.22V50.76c0-.418-.04-.726-.113-.925-.075-.198-.198-.375-.37-.53h1.856v-.002zm1.92 7.162c-.035.084-.062.17-.08.26-.018.088-.025.18-.025.275 0 .08.027.165.085.26.056.096.15.202.275.32h-1.94c.16-.11.306-.262.434-.456.13-.193.26-.458.393-.797l2.314-5.91c.048-.11.082-.22.107-.327.024-.11.036-.203.036-.287 0-.095-.023-.183-.066-.262-.046-.08-.12-.158-.223-.237h1.87l2.618 6.94c.12.316.254.57.392.767.143.195.32.386.543.57h-2.357l.03-.028c.216-.23.324-.397.324-.504 0-.126-.046-.312-.142-.558-.01-.04-.022-.07-.03-.09l-.705-1.914h-3.065l-.786 1.98zm1.114-2.81h2.425l-1.165-3.2-1.26 3.2zM417.094 2.785v13.937l-1.422-.006 5.67 15.03 4.86.006v13.95h-46.855V31.77l4.827.005 5.72-15.073-1.453.004.007-13.928z"/><path class="st3" d="M402.767 7.985l10.036 25.823s1.286 3.142 3.374 3.142h-7.307s.367.053.732-.552c.21-.345.033-.863.033-.863l-2.26-5.764h-9.2l-2.262 5.765s-.173.518.036.863c.364.605.73.552.73.552h-7.308c2.087 0 3.374-3.142 3.374-3.142l10.02-25.823"/><path class="st1" d="M402.776 7.952h9.05v3.592h-3.76l9.884 25.28h2.923v3.718h-12.25v-3.618h-3.44v7.095h19.337V33.44l-4.342.007-6.96-18.412h2.185V4.462H390.148v10.573h2.187l-6.96 18.39-4.344.015v10.58h19.34v-7.096h-3.442v3.618h-12.25v-3.72h2.923l9.885-25.278h-3.76V7.952h9.05"/><path class="st2" d="M402.76 27.033h3.534l-3.466-9.06-3.59 9.06zM451.62 32.16V22.62h2.492v9.335c0 2.78 1.27 4.17 3.81 4.17s3.812-1.39 3.812-4.17v-9.335h2.492v9.537c0 4.13-2.1 6.197-6.297 6.197-4.207 0-6.31-2.066-6.31-6.198zm19.047 5.788V22.015l9.727 9.37c.53.515 1.084 1.137 1.663 1.862V22.622h2.272v15.923l-9.917-9.537c-.543-.516-1.034-1.09-1.473-1.717V37.95h-2.273zm20.246 0V22.622h2.49v15.326h-2.49zm7.182-15.326h2.586l3.435 8.165c.384.914.656 1.734.816 2.46.19-.775.47-1.595.84-2.46l3.422-8.165h2.575l-6.836 15.923-6.835-15.923zm18.324 15.326V22.622h8.55v2.125h-6.06v3.79h6.06v2.23h-6.06v4.952h6.06v2.23l-8.55-.002zm14.55 0V22.622h3.505c1.816 0 3.096.286 3.842.858.992.788 1.492 1.908 1.5 3.358 0 2.47-1.19 3.846-3.568 4.132l5.308 6.978h-2.816l-5.153-6.862h-.243v6.862h-2.376zm2.493-8.8h.453c1.21 0 2.064-.13 2.56-.393.496-.262.745-.83.745-1.702 0-.9-.253-1.51-.76-1.828-.506-.318-1.354-.477-2.543-.477h-.453v4.4zm11.504 5.712l1.99-.92c.37 1.402 1.355 2.103 2.958 2.103.742 0 1.33-.207 1.768-.623.437-.415.656-.965.656-1.65 0-.187-.022-.36-.064-.517s-.084-.297-.126-.42c-.042-.12-.128-.243-.257-.365-.13-.122-.23-.218-.3-.288s-.21-.162-.42-.277c-.21-.115-.356-.194-.44-.236l-.546-.267c-.28-.136-.472-.225-.577-.267-1.514-.74-2.592-1.432-3.236-2.078-.643-.646-.966-1.513-.966-2.6 0-1.237.42-2.242 1.262-3.017.842-.774 1.95-1.16 3.328-1.16 1.14 0 2.097.215 2.868.648s1.3 1.054 1.59 1.864l-1.98 1.005c-.587-.928-1.347-1.392-2.278-1.392-.672 0-1.205.175-1.6.523-.396.35-.594.817-.594 1.403 0 .627.196 1.105.588 1.433.392.328 1.063.71 2.015 1.14.14.07.245.12.315.148 1.44.657 2.47 1.315 3.087 1.974.616.66.925 1.516.925 2.57 0 1.45-.458 2.608-1.374 3.47s-2.165 1.293-3.75 1.293c-1.297 0-2.363-.302-3.2-.906-.838-.603-1.386-1.466-1.643-2.59zm15.644 3.088V22.622h2.493v15.326h-2.492zm7.36-13.2V22.62h10.614v2.125h-4.05v13.2h-2.493v-13.2h-4.07zm14.554-2.126h2.617l3.22 5.203c.176.3.39.71.644 1.225.19-.503.408-.932.655-1.288l3.3-5.14h2.493l-5.276 8.312v7.014h-2.492v-7.014l-5.16-8.312zm27.045 15.326V22.622h2.49v13.096h5.57v2.23h-8.06zm12.976 0V22.622h2.492v15.326h-2.492zm9.057 0V22.622h3.876c.958 0 1.725.045 2.3.135.574.09 1.074.3 1.5.625 1.002.722 1.503 1.798 1.503 3.23 0 1.705-.733 2.78-2.2 3.225.894.138 1.6.54 2.12 1.208.52.667.78 1.51.78 2.525 0 1.305-.417 2.375-1.253 3.21-.506.504-1.103.825-1.79.962s-1.666.205-2.93.205h-3.907zm2.49-8.835h.95c1.157 0 1.987-.16 2.492-.48s.757-.88.757-1.68c0-.93-.246-1.547-.736-1.852-.49-.304-1.328-.457-2.512-.457h-.95v4.47zm0 6.71h.857c1.525 0 2.517-.156 2.977-.467.64-.436.96-1.08.96-1.93 0-.99-.39-1.693-1.17-2.108-.438-.228-1.11-.342-2.015-.342h-1.608v4.847zm13.064 2.125V22.622h3.504c1.817 0 3.097.286 3.843.858.992.788 1.492 1.908 1.5 3.358 0 2.47-1.19 3.846-3.568 4.132l5.31 6.978h-2.817l-5.153-6.862h-.242v6.862h-2.376zm2.492-8.8h.452c1.21 0 2.064-.13 2.56-.393.496-.262.745-.83.745-1.702 0-.9-.254-1.51-.76-1.828-.507-.318-1.355-.477-2.544-.477h-.453v4.4zm11.704 8.8l7.422-15.933 7.412 15.933h-2.628l-1.738-4h-6.072l-1.78 4h-2.616zm5.318-6.02h4.27l-1.57-3.495c-.187-.44-.38-1.02-.575-1.738-.175.67-.36 1.25-.555 1.738l-1.57 3.496zm14.12 6.02V22.622h3.503c1.816 0 3.096.286 3.842.858.992.788 1.492 1.908 1.5 3.358 0 2.47-1.19 3.846-3.568 4.132l5.308 6.978h-2.816l-5.153-6.862h-.243v6.862h-2.376zm2.49-8.8h.454c1.21 0 2.064-.13 2.56-.393.496-.262.745-.83.745-1.702 0-.9-.253-1.51-.76-1.828-.506-.318-1.354-.477-2.543-.477h-.453v4.4zm12.717 8.8V22.622h2.49v15.326H696zm9.055 0V22.622h8.553v2.125h-6.06v3.79h6.06v2.23h-6.06v4.952h6.06v2.23l-8.553-.002zm13.408-3.088l1.99-.92c.37 1.402 1.355 2.103 2.958 2.103.743 0 1.332-.207 1.77-.623.436-.415.655-.965.655-1.65 0-.187-.02-.36-.063-.517s-.084-.297-.126-.42c-.042-.12-.128-.243-.257-.365-.13-.122-.23-.218-.3-.288s-.21-.162-.42-.277c-.21-.115-.357-.194-.44-.236l-.547-.267c-.28-.136-.472-.225-.577-.267-1.514-.74-2.592-1.432-3.236-2.078-.643-.646-.966-1.513-.966-2.6 0-1.237.42-2.242 1.262-3.017.842-.774 1.95-1.16 3.328-1.16 1.14 0 2.097.215 2.868.648.77.433 1.3 1.054 1.59 1.864l-1.98 1.005c-.587-.928-1.347-1.392-2.278-1.392-.672 0-1.205.175-1.6.523-.396.35-.594.817-.594 1.403 0 .627.196 1.105.588 1.433.392.328 1.063.71 2.015 1.14.14.07.245.12.315.148 1.44.657 2.47 1.315 3.087 1.974.617.66.926 1.516.926 2.57 0 1.45-.457 2.608-1.373 3.47-.916.862-2.166 1.293-3.752 1.293-1.296 0-2.362-.302-3.2-.906-.837-.603-1.384-1.466-1.642-2.59z"/><path class="st6" d="M440.224 2.78v55"/><path class="st2" d="M417.094 66.85v13.937l-1.422-.007 5.67 15.03 4.86.007v13.948h-46.855v-13.93l4.827.006 5.72-15.07-1.453.002.007-13.927z"/><path class="st3" d="M402.767 72.05l10.036 25.822s1.286 3.142 3.374 3.142h-7.307s.367.053.732-.552c.21-.345.033-.863.033-.863l-2.26-5.765h-9.2l-2.262 5.764s-.173.517.036.862c.364.605.73.552.73.552h-7.308c2.087 0 3.374-3.142 3.374-3.142l10.02-25.823"/><path class="st1" d="M402.776 72.017h9.05v3.59h-3.76l9.884 25.28h2.923v3.72h-12.25v-3.62h-3.44v7.096h19.337v-10.58l-4.342.01-6.96-18.414h2.185V68.525H390.148V79.1h2.187l-6.96 18.388-4.344.016v10.58h19.34v-7.096h-3.442v3.62h-12.25v-3.72h2.923l9.885-25.28h-3.76v-3.59h9.05"/><path class="st2" d="M402.76 91.097h3.534l-3.466-9.058-3.59 9.057zM380.538 110.633l.757 1.834 2.88 7.157c.317.795.568 1.575 1.356 1.977v.044h-2.84v-.043c.68-.305.568-.457.197-1.43l-.75-1.968h-3.506l-.72 1.967c-.29.78-.387 1.18.277 1.43v.044h-2.548v-.043c.8-.4 1.04-1.18 1.342-1.976l3.556-8.935v-.057zm-.162 3.02l-1.386 3.52h2.746l-1.36-3.52zm7.106 6.532c0 .417.037.726.11.924s.197.377.373.534h-2.254c.174-.157.297-.337.37-.535.077-.2.114-.51.114-.925v-5.36c0-.417-.036-.726-.113-.925-.073-.2-.196-.377-.37-.532h2.846c.812 0 1.466.195 1.966.585.497.39.747.896.747 1.522 0 .453-.15.852-.45 1.2-.3.345-.766.65-1.397.91l2.136 2.87c.125.17.275.35.454.54.178.19.378.386.61.593l-.64.058h-.1c-.3 0-.59-.078-.875-.236-.286-.158-.526-.375-.723-.652l-2.447-3.4c.73-.164 1.26-.388 1.598-.672.336-.285.505-.65.505-1.1 0-.42-.145-.76-.435-1.022-.288-.262-.667-.394-1.136-.394-.107 0-.235.01-.383.027-.15.018-.32.045-.51.08l.002 5.908zm7.616-.002c0 .418.037.727.107.926.074.197.2.377.376.534h-2.253c.175-.157.3-.337.373-.535.073-.2.11-.51.11-.927v-5.36c0-.42-.037-.727-.11-.926-.073-.198-.198-.376-.373-.53h2.254c-.176.155-.3.332-.375.53-.07.2-.107.507-.107.925v5.36zm8.34-.087l-.598 1.55h-6.412l4.375-7.213c-.327-.083-.635-.145-.926-.185-.29-.04-.56-.06-.807-.06-.364 0-.714.045-1.05.135-.337.09-.68.233-1.032.428l.567-1.383h5.332l-4.374 7.21c.486.057.894.097 1.227.12.33.025.617.037.856.037.568 0 1.088-.053 1.557-.16.47-.106.896-.266 1.284-.478zm4.733 1.75c-.628 0-1.218-.102-1.77-.303-.558-.202-1.033-.49-1.43-.868-.42-.397-.742-.866-.97-1.405-.226-.538-.338-1.104-.338-1.697 0-.465.07-.917.216-1.354.144-.438.355-.846.63-1.225.43-.584.962-1.033 1.594-1.348.633-.314 1.325-.47 2.07-.47.64 0 1.235.1 1.79.3.554.2 1.03.49 1.43.87.425.397.75.867.975 1.41.224.542.336 1.128.336 1.756 0 .577-.125 1.142-.378 1.695-.253.553-.607 1.043-1.065 1.467-.41.385-.877.675-1.402.873-.526.197-1.09.297-1.687.297zm.046-7.79c-.916 0-1.67.314-2.264.946-.593.632-.89 1.44-.89 2.42 0 1.015.294 1.856.883 2.526.587.67 1.32 1.005 2.2 1.005.91 0 1.665-.317 2.26-.95.592-.635.89-1.445.89-2.43 0-1.015-.295-1.855-.882-2.52-.59-.666-1.322-.998-2.197-.998zm13.062-.69c-.178.156-.302.333-.373.53-.075.2-.11.508-.11.926v7.013c-.288-.01-.56-.1-.818-.278-.258-.178-.58-.516-.97-1.016l-4.243-5.39v5.034c0 .433.035.748.107.94.072.194.193.368.367.52h-1.864c.17-.156.295-.336.37-.534.074-.2.113-.508.113-.926v-5.36c0-.42-.04-.727-.113-.926-.076-.198-.2-.376-.37-.53h1.667l4.865 6.22v-4.764c0-.418-.04-.726-.113-.925-.075-.2-.198-.377-.37-.53h1.856v-.003zm1.92 7.164c-.035.084-.062.17-.08.26-.018.088-.025.18-.025.275 0 .08.027.165.085.26.056.096.15.202.275.32h-1.94c.16-.11.306-.262.434-.456.13-.194.26-.46.393-.798l2.314-5.91c.048-.11.082-.22.107-.327.024-.11.036-.203.036-.287 0-.095-.023-.183-.066-.262-.046-.08-.12-.16-.223-.238h1.87l2.618 6.94c.12.316.254.57.392.767.143.195.32.386.543.57h-2.357l.03-.028c.216-.23.324-.397.324-.504 0-.126-.046-.312-.142-.558-.01-.04-.022-.07-.03-.09l-.705-1.914h-3.065l-.786 1.98zm1.114-2.812h2.425l-1.165-3.2-1.26 3.2zM451.62 84.69v-9.537h2.492v9.335c0 2.78 1.27 4.17 3.81 4.17s3.812-1.39 3.812-4.17v-9.335h2.492v9.537c0 4.132-2.1 6.198-6.297 6.198-4.207 0-6.31-2.066-6.31-6.198zm19.047 5.79V74.545l9.727 9.37c.53.515 1.084 1.137 1.663 1.862V75.153h2.272v15.923l-9.917-9.537c-.543-.517-1.034-1.09-1.473-1.718V90.48h-2.273zm20.246 0V75.152h2.49V90.48h-2.49zm7.182-15.327h2.586l3.435 8.165c.384.914.656 1.734.816 2.46.19-.775.47-1.595.84-2.46l3.422-8.165h2.575l-6.836 15.923-6.835-15.923zM516.42 90.48V75.152h8.55v2.125h-6.06v3.79h6.06v2.23h-6.06v4.952h6.06v2.23h-8.55zm14.55 0V75.152h3.505c1.816 0 3.096.286 3.842.858.992.79 1.492 1.91 1.5 3.36 0 2.468-1.19 3.845-3.568 4.13l5.308 6.98h-2.816l-5.153-6.863h-.243v6.862h-2.376zm2.493-8.802h.453c1.21 0 2.064-.13 2.56-.393.496-.262.745-.83.745-1.702 0-.9-.253-1.51-.76-1.828-.506-.318-1.354-.477-2.543-.477h-.453v4.4zm11.504 5.713l1.99-.92c.37 1.403 1.355 2.104 2.958 2.104.742 0 1.33-.207 1.768-.623.437-.414.656-.964.656-1.648 0-.188-.022-.36-.064-.518s-.084-.297-.126-.42c-.042-.12-.128-.243-.257-.365-.13-.123-.23-.22-.3-.29-.07-.07-.21-.16-.42-.276-.21-.115-.356-.194-.44-.236l-.546-.267c-.28-.135-.472-.224-.577-.266-1.514-.74-2.592-1.432-3.236-2.078-.643-.646-.966-1.513-.966-2.6 0-1.237.42-2.242 1.262-3.017.842-.775 1.95-1.162 3.328-1.162 1.14 0 2.097.216 2.868.65s1.3 1.053 1.59 1.863l-1.98 1.006c-.587-.928-1.347-1.392-2.278-1.392-.672 0-1.205.175-1.6.523-.396.35-.594.817-.594 1.403 0 .628.196 1.106.588 1.434.392.328 1.063.71 2.015 1.14.14.07.245.12.315.148 1.44.656 2.47 1.314 3.087 1.973.616.66.925 1.516.925 2.57 0 1.45-.458 2.608-1.374 3.47s-2.165 1.293-3.75 1.293c-1.297 0-2.363-.302-3.2-.906-.838-.604-1.386-1.468-1.643-2.59zm15.644 3.09V75.152h2.493V90.48h-2.492zm7.36-13.202v-2.125h10.614v2.125h-4.05v13.2h-2.493v-13.2h-4.07zm14.554-2.125h2.617l3.22 5.203c.176.3.39.71.644 1.225.19-.502.408-.93.655-1.287l3.3-5.14h2.493l-5.276 8.312v7.014h-2.492v-7.015l-5.16-8.312zM451.62 113.735V98.41h2.493v13.095h5.57v2.23h-8.062zm12.978 0V98.41h2.492v15.325h-2.492zm9.057 0V98.41h3.876c.96 0 1.727.044 2.3.134.576.09 1.076.3 1.503.625 1 .72 1.502 1.797 1.502 3.228 0 1.706-.733 2.78-2.2 3.226.894.138 1.6.54 2.12 1.208.52.667.78 1.51.78 2.525 0 1.305-.417 2.375-1.253 3.21-.506.504-1.103.825-1.79.962-.69.136-1.666.204-2.93.204h-3.907zm2.49-8.836h.95c1.157 0 1.987-.16 2.492-.48s.757-.88.757-1.68c0-.93-.246-1.548-.736-1.853-.49-.305-1.328-.458-2.512-.458h-.95v4.47zm0 6.71h.857c1.525 0 2.517-.156 2.977-.467.64-.436.96-1.08.96-1.93 0-.99-.39-1.693-1.17-2.108-.44-.228-1.11-.342-2.016-.342h-1.608v4.847zm13.064 2.125V98.41h3.503c1.816 0 3.096.285 3.842.857.992.788 1.492 1.908 1.5 3.358 0 2.47-1.19 3.846-3.568 4.132l5.31 6.978h-2.817l-5.153-6.862h-.242v6.862h-2.376zm2.49-8.8h.454c1.21 0 2.064-.132 2.56-.394.496-.26.745-.828.745-1.7 0-.902-.255-1.51-.76-1.83-.508-.317-1.356-.476-2.545-.476h-.453v4.4zm11.706 8.8l7.422-15.933 7.412 15.933h-2.628l-1.738-4h-6.072l-1.78 4h-2.616zm5.318-6.02h4.27l-1.57-3.496c-.187-.44-.38-1.02-.575-1.74-.176.67-.36 1.25-.556 1.74l-1.57 3.495zm14.12 6.02V98.41h3.503c1.816 0 3.096.285 3.842.857.99.788 1.49 1.908 1.498 3.358 0 2.47-1.19 3.846-3.567 4.132l5.31 6.978h-2.816l-5.153-6.862h-.24v6.862h-2.377zm2.49-8.8h.455c1.21 0 2.063-.132 2.56-.394.495-.26.744-.828.744-1.7 0-.902-.254-1.51-.76-1.83-.507-.317-1.355-.476-2.544-.476h-.454v4.4zm12.717 8.8V98.41h2.493v15.325h-2.492zm9.057 0V98.41h8.553v2.124h-6.06v3.79h6.06v2.23h-6.06v4.952h6.06v2.23h-8.553zm13.408-3.088l1.99-.92c.37 1.402 1.355 2.103 2.958 2.103.742 0 1.33-.207 1.768-.623.438-.415.657-.965.657-1.65 0-.187-.02-.36-.063-.517s-.084-.297-.126-.42c-.042-.12-.128-.243-.257-.365-.128-.122-.228-.218-.298-.288-.07-.07-.21-.162-.42-.277-.21-.115-.357-.194-.44-.236l-.547-.267c-.28-.136-.472-.225-.577-.267-1.514-.74-2.592-1.432-3.236-2.078-.643-.646-.966-1.513-.966-2.6 0-1.237.42-2.242 1.262-3.017.842-.774 1.95-1.16 3.328-1.16 1.14 0 2.097.215 2.868.648s1.3 1.054 1.59 1.864l-1.98 1.005c-.587-.928-1.347-1.392-2.278-1.392-.672 0-1.205.175-1.6.523-.396.35-.594.817-.594 1.403 0 .628.196 1.106.588 1.434.392.328 1.063.71 2.015 1.14.14.07.245.12.315.148 1.44.656 2.47 1.314 3.087 1.973.617.66.926 1.517.926 2.57 0 1.452-.458 2.61-1.374 3.47s-2.167 1.294-3.753 1.294c-1.296 0-2.362-.302-3.2-.906-.837-.604-1.384-1.468-1.642-2.59z"/><path class="st6" d="M440.224 66.845v55"/></svg>