<svg xmlns="http://www.w3.org/2000/svg" width="359.5" height="124.5" viewBox="0 0 359.5 124.5"><style type="text/css">.st0{fill:#002147;} .st1{fill:#FFFFFF;} .st2{fill:#C3002F;} .st3{fill:#001F5B;} .st4{fill:none;stroke:#FFFFFF;stroke-miterlimit:10;} .st5{fill:none;stroke:#231F20;stroke-miterlimit:10;}</style><path class="st1" d="M44.356 2.785v13.937l-1.422-.006 5.67 15.03 4.86.006v13.95H6.61V31.77l4.826.005 5.72-15.073-1.453.004.006-13.928z"/><path class="st2" d="M30.03 7.985l10.035 25.823s1.286 3.142 3.374 3.142H36.13s.367.053.732-.552c.21-.345.033-.863.033-.863l-2.26-5.764h-9.2l-2.262 5.765s-.173.518.036.863c.366.605.73.552.73.552h-7.306c2.087 0 3.374-3.142 3.374-3.142l10.02-25.823"/><path class="st3" d="M30.038 7.952h9.05v3.592h-3.76l9.884 25.28h2.923v3.718h-12.25v-3.618h-3.44v7.095h19.337V33.44l-4.342.007-6.96-18.412h2.185V4.462H17.41v10.573h2.187l-6.96 18.39-4.344.015v10.58H27.63v-7.096h-3.44v3.618H11.94v-3.72h2.923l9.884-25.278h-3.76V7.952h9.05"/><path class="st1" d="M30.02 27.033h3.536l-3.466-9.06-3.59 9.06h3.52z"/><path class="st3" d="M7.8 46.568l.757 1.834 2.88 7.157c.317.794.568 1.574 1.356 1.976v.043h-2.84v-.044c.68-.306.567-.458.196-1.432l-.75-1.967H5.893l-.72 1.967c-.29.78-.388 1.18.276 1.432v.043H2.9v-.044c.803-.402 1.04-1.182 1.344-1.977L7.8 46.624v-.057zm-.162 3.022l-1.386 3.518h2.746l-1.36-3.518zM14.744 56.12c0 .417.037.726.11.924.07.198.197.378.373.535h-2.254c.173-.158.296-.338.37-.536.076-.2.113-.508.113-.924v-5.36c0-.417-.036-.726-.113-.925-.074-.2-.197-.377-.37-.532h2.845c.812 0 1.466.195 1.966.585.497.39.747.896.747 1.522 0 .453-.148.852-.448 1.2-.3.345-.766.65-1.397.91l2.136 2.87c.127.17.277.35.456.54.178.19.378.386.61.593l-.64.058h-.1c-.3 0-.59-.077-.875-.235-.284-.158-.524-.375-.72-.652l-2.448-3.4c.73-.164 1.26-.388 1.598-.672.336-.284.505-.65.505-1.1 0-.418-.145-.76-.435-1.02-.288-.263-.667-.395-1.136-.395-.107 0-.235.01-.383.027-.15.018-.32.045-.507.08v5.908zM22.36 56.12c0 .417.037.726.107.925.074.198.2.378.376.535H20.59c.174-.157.3-.337.372-.535.073-.2.11-.508.11-.926v-5.362c0-.418-.037-.726-.11-.925-.073-.198-.198-.375-.373-.53h2.253c-.177.155-.302.332-.376.53-.07.2-.107.507-.107.925v5.36zM30.7 56.032l-.598 1.55H23.69l4.375-7.213c-.327-.084-.635-.146-.926-.186-.29-.04-.56-.06-.808-.06-.364 0-.714.045-1.05.135-.337.09-.68.232-1.032.427l.567-1.384h5.332l-4.375 7.21c.486.057.894.097 1.227.12.33.025.617.037.856.037.568 0 1.088-.053 1.557-.16.47-.106.896-.266 1.284-.478zM35.433 57.78c-.63 0-1.22-.1-1.772-.302-.556-.202-1.03-.49-1.428-.868-.42-.397-.742-.866-.97-1.405-.226-.538-.338-1.104-.338-1.697 0-.465.07-.917.216-1.354.144-.437.355-.845.63-1.224.43-.584.962-1.033 1.594-1.348.633-.314 1.325-.47 2.07-.47.64 0 1.235.1 1.79.3.554.2 1.03.49 1.43.87.425.397.75.867.975 1.41.223.542.335 1.128.335 1.756 0 .577-.125 1.142-.378 1.695-.253.553-.607 1.043-1.065 1.467-.41.385-.877.675-1.402.873-.526.197-1.09.297-1.687.297zm.045-7.79c-.916 0-1.67.316-2.264.948-.593.632-.89 1.44-.89 2.42 0 1.015.294 1.856.883 2.526.587.67 1.32 1.005 2.2 1.005.91 0 1.665-.318 2.26-.952.592-.634.89-1.444.89-2.43 0-1.014-.295-1.854-.882-2.52-.59-.665-1.322-.997-2.197-.997zM48.54 49.303c-.178.155-.302.332-.373.53-.075.2-.11.507-.11.925v7.013c-.288-.008-.56-.1-.818-.277-.26-.178-.58-.516-.97-1.016l-4.244-5.39v5.033c0 .433.035.748.107.94.07.194.192.368.366.52h-1.865c.17-.156.295-.336.37-.534.074-.2.113-.508.113-.926v-5.36c0-.42-.04-.727-.113-.926-.076-.198-.2-.375-.37-.53h1.667l4.865 6.22V50.76c0-.418-.04-.726-.113-.925-.075-.198-.198-.375-.37-.53h1.856zM50.46 56.465c-.035.084-.062.17-.08.26-.018.088-.025.18-.025.275 0 .08.027.165.085.26.056.096.15.202.275.32h-1.94c.16-.11.306-.262.434-.456.128-.193.26-.458.392-.797l2.314-5.91c.048-.11.082-.22.107-.327.023-.11.035-.203.035-.287 0-.095-.023-.183-.066-.262-.046-.08-.12-.158-.223-.237h1.87l2.617 6.94c.12.316.254.57.392.767.142.195.32.386.542.57h-2.357l.03-.028c.216-.23.324-.397.324-.504 0-.126-.047-.312-.143-.558-.01-.04-.022-.07-.03-.09l-.705-1.914h-3.065l-.786 1.98zm1.114-2.81H54l-1.166-3.2-1.26 3.2z"/><path class="st0" d="M78.883 32.16V22.62h2.49v9.335c0 2.78 1.27 4.17 3.812 4.17 2.54 0 3.81-1.39 3.81-4.17v-9.335h2.493v9.537c0 4.13-2.1 6.197-6.297 6.197-4.205 0-6.307-2.066-6.307-6.198zM97.93 37.948V22.015l9.726 9.37c.53.515 1.084 1.137 1.663 1.862V22.622h2.27v15.923l-9.915-9.537c-.543-.516-1.034-1.09-1.473-1.717V37.95H97.93zM118.175 37.948V22.622h2.49v15.326h-2.49zM125.357 22.622h2.586l3.434 8.165c.384.914.656 1.734.816 2.46.188-.775.468-1.595.838-2.46l3.424-8.165h2.575l-6.837 15.923-6.836-15.923zM143.68 37.948V22.622h8.553v2.125h-6.06v3.79h6.06v2.23h-6.06v4.952h6.06v2.23h-8.552zM158.233 37.948V22.622h3.504c1.816 0 3.096.286 3.842.858.99.788 1.49 1.908 1.498 3.358 0 2.47-1.19 3.846-3.567 4.132l5.31 6.978h-2.816l-5.153-6.862h-.24v6.862h-2.377zm2.492-8.8h.453c1.21 0 2.064-.13 2.56-.393s.745-.83.745-1.702c0-.9-.254-1.51-.76-1.828-.507-.318-1.355-.477-2.544-.477h-.454v4.4zM172.23 34.86l1.988-.92c.37 1.402 1.356 2.103 2.96 2.103.74 0 1.33-.207 1.767-.623.437-.415.656-.965.656-1.65 0-.187-.02-.36-.062-.517-.042-.157-.084-.297-.126-.42-.042-.12-.128-.243-.257-.365-.13-.122-.23-.218-.3-.288-.07-.07-.21-.162-.42-.277-.21-.115-.356-.194-.44-.236l-.546-.267c-.28-.136-.473-.225-.578-.267-1.514-.74-2.592-1.432-3.236-2.078-.643-.646-.966-1.513-.966-2.6 0-1.237.42-2.242 1.262-3.017.842-.774 1.95-1.16 3.328-1.16 1.14 0 2.097.215 2.868.648s1.3 1.054 1.59 1.864l-1.98 1.005c-.587-.928-1.347-1.392-2.278-1.392-.672 0-1.205.175-1.6.523-.396.35-.594.817-.594 1.403 0 .627.196 1.105.588 1.433.392.328 1.063.71 2.015 1.14.14.07.244.12.314.148 1.44.657 2.47 1.315 3.087 1.974.618.66.927 1.516.927 2.57 0 1.45-.458 2.608-1.374 3.47-.916.862-2.166 1.293-3.752 1.293-1.295 0-2.36-.302-3.2-.906-.836-.603-1.384-1.466-1.64-2.59zM187.873 37.948V22.622h2.492v15.326h-2.492zM195.23 24.747v-2.125h10.616v2.125h-4.05v13.2h-2.493v-13.2h-4.072zM209.786 22.622h2.617l3.22 5.203c.175.3.39.71.643 1.225.19-.503.408-.932.655-1.288l3.303-5.14h2.492l-5.276 8.312v7.014h-2.493v-7.014l-5.16-8.312zM236.83 37.948V22.622h2.493v13.096h5.57v2.23h-8.062zM249.808 37.948V22.622h2.492v15.326h-2.492zM258.865 37.948V22.622h3.876c.96 0 1.727.045 2.3.135.576.09 1.076.3 1.503.625 1 .722 1.502 1.798 1.502 3.23 0 1.705-.733 2.78-2.2 3.225.894.138 1.6.54 2.12 1.208.52.667.78 1.51.78 2.525 0 1.305-.417 2.375-1.253 3.21-.506.504-1.103.825-1.79.962-.69.137-1.666.205-2.93.205h-3.907zm2.49-8.835h.95c1.157 0 1.987-.16 2.492-.48.505-.318.757-.88.757-1.68 0-.93-.246-1.547-.736-1.852-.49-.304-1.328-.457-2.512-.457h-.95v4.47zm0 6.71h.857c1.525 0 2.517-.156 2.977-.467.64-.436.96-1.08.96-1.93 0-.99-.39-1.693-1.17-2.108-.44-.228-1.11-.342-2.016-.342h-1.608v4.847zM274.42 37.948V22.622h3.503c1.816 0 3.096.286 3.842.858.992.788 1.492 1.908 1.5 3.358 0 2.47-1.19 3.846-3.568 4.132l5.31 6.978h-2.817l-5.153-6.862h-.242v6.862h-2.376zm2.49-8.8h.454c1.21 0 2.064-.13 2.56-.393s.745-.83.745-1.702c0-.9-.255-1.51-.76-1.828-.508-.318-1.356-.477-2.545-.477h-.453v4.4zM288.616 37.948l7.422-15.933 7.412 15.933h-2.628l-1.738-4h-6.072l-1.78 4h-2.616zm5.318-6.02h4.27l-1.57-3.495c-.187-.44-.38-1.02-.575-1.738-.176.67-.36 1.25-.556 1.738l-1.57 3.496zM308.053 37.948V22.622h3.504c1.816 0 3.096.286 3.842.858.99.788 1.49 1.908 1.498 3.358 0 2.47-1.19 3.846-3.567 4.132l5.31 6.978h-2.816l-5.153-6.862h-.24v6.862h-2.377zm2.492-8.8h.453c1.21 0 2.064-.13 2.56-.393.496-.262.745-.83.745-1.702 0-.9-.254-1.51-.76-1.828-.507-.318-1.355-.477-2.544-.477h-.454v4.4zM323.26 37.948V22.622h2.493v15.326h-2.492zM332.317 37.948V22.622h8.553v2.125h-6.06v3.79h6.06v2.23h-6.06v4.952h6.06v2.23h-8.553zM345.725 34.86l1.99-.92c.37 1.402 1.355 2.103 2.958 2.103.742 0 1.33-.207 1.768-.623.438-.415.657-.965.657-1.65 0-.187-.02-.36-.063-.517-.042-.157-.084-.297-.126-.42-.042-.12-.128-.243-.257-.365s-.228-.218-.298-.288c-.07-.07-.21-.162-.42-.277-.21-.115-.357-.194-.44-.236l-.547-.267c-.28-.136-.472-.225-.577-.267-1.514-.74-2.592-1.432-3.236-2.078-.643-.646-.966-1.513-.966-2.6 0-1.237.42-2.242 1.262-3.017.842-.774 1.95-1.16 3.328-1.16 1.14 0 2.097.215 2.868.648s1.3 1.054 1.59 1.864l-1.98 1.005c-.587-.928-1.347-1.392-2.278-1.392-.672 0-1.205.175-1.6.523-.396.35-.594.817-.594 1.403 0 .627.196 1.105.588 1.433.392.328 1.063.71 2.015 1.14.14.07.245.12.315.148 1.44.657 2.47 1.315 3.087 1.974.617.66.926 1.516.926 2.57 0 1.45-.458 2.608-1.374 3.47-.917.862-2.167 1.293-3.753 1.293-1.296 0-2.362-.302-3.2-.906-.837-.603-1.384-1.466-1.642-2.59z"/><path class="st5" d="M67.486 2.78v55"/><path class="st1" d="M44.356 66.85v13.937l-1.422-.007 5.67 15.03 4.86.007v13.948H6.61v-13.93l4.826.006 5.72-15.07-1.453.002.006-13.927z"/><path class="st2" d="M30.03 72.05L40.064 97.87s1.286 3.142 3.374 3.142H36.13s.367.053.732-.552c.21-.345.033-.863.033-.863l-2.26-5.765h-9.2L23.176 99.6s-.173.517.036.862c.366.605.73.552.73.552h-7.306c2.087 0 3.374-3.142 3.374-3.142l10.02-25.823"/><path class="st3" d="M30.038 72.017h9.05v3.59h-3.76l9.884 25.28h2.923v3.72h-12.25v-3.62h-3.44v7.096h19.337v-10.58l-4.342.01-6.96-18.414h2.185V68.525H17.41V79.1h2.187l-6.96 18.388-4.344.016v10.58H27.63v-7.096h-3.44v3.62H11.94v-3.72h2.923l9.884-25.28h-3.76v-3.59h9.05"/><path class="st1" d="M30.02 91.097h3.536L30.09 82.04l-3.59 9.057h3.52z"/><path class="st3" d="M7.8 110.633l.757 1.834 2.88 7.157c.317.795.568 1.575 1.356 1.977v.044h-2.84v-.043c.68-.305.567-.457.196-1.43L9.4 118.2H5.893l-.72 1.967c-.29.78-.388 1.18.276 1.43v.044H2.9v-.043c.803-.4 1.04-1.18 1.344-1.976L7.8 110.69v-.057zm-.162 3.02l-1.386 3.52h2.746l-1.36-3.52zM14.744 120.185c0 .417.037.726.11.924.07.197.197.377.373.534h-2.254c.173-.157.296-.337.37-.535.076-.2.113-.51.113-.925v-5.36c0-.417-.036-.726-.113-.925-.074-.2-.197-.377-.37-.532h2.845c.812 0 1.466.195 1.966.585.497.39.747.896.747 1.522 0 .453-.148.852-.448 1.2-.3.345-.766.65-1.397.91l2.136 2.87c.127.17.277.35.456.54.178.19.378.386.61.593l-.64.058h-.1c-.3 0-.59-.078-.875-.236-.284-.158-.524-.375-.72-.652l-2.448-3.4c.73-.164 1.26-.388 1.598-.672.336-.285.505-.65.505-1.1 0-.42-.145-.76-.435-1.022-.288-.262-.667-.394-1.136-.394-.107 0-.235.01-.383.027-.15.018-.32.045-.507.08v5.908zM22.36 120.183c0 .418.037.727.107.926.074.197.2.377.376.534H20.59c.174-.157.3-.337.372-.535.073-.2.11-.51.11-.927v-5.36c0-.42-.037-.727-.11-.926-.073-.198-.198-.376-.373-.53h2.253c-.177.155-.302.332-.376.53-.07.2-.107.507-.107.925v5.36zM30.7 120.096l-.598 1.55H23.69l4.375-7.213c-.327-.083-.635-.145-.926-.185-.29-.04-.56-.06-.808-.06-.364 0-.714.045-1.05.135-.337.09-.68.233-1.032.428l.567-1.383h5.332l-4.375 7.21c.486.057.894.097 1.227.12.33.025.617.037.856.037.568 0 1.088-.053 1.557-.16.47-.106.896-.266 1.284-.478zM35.433 121.845c-.63 0-1.22-.1-1.772-.302-.556-.202-1.03-.49-1.428-.868-.42-.397-.742-.866-.97-1.405-.226-.538-.338-1.104-.338-1.697 0-.465.07-.917.216-1.354.144-.438.355-.846.63-1.225.43-.584.962-1.033 1.594-1.348.633-.314 1.325-.47 2.07-.47.64 0 1.235.1 1.79.3.554.2 1.03.49 1.43.87.425.397.75.867.975 1.41.223.542.335 1.128.335 1.756 0 .577-.125 1.142-.378 1.695-.253.553-.607 1.043-1.065 1.467-.41.385-.877.675-1.402.873-.526.197-1.09.297-1.687.297zm.045-7.79c-.916 0-1.67.315-2.264.947-.593.632-.89 1.44-.89 2.42 0 1.015.294 1.856.883 2.526.587.67 1.32 1.005 2.2 1.005.91 0 1.665-.317 2.26-.95.592-.635.89-1.445.89-2.43 0-1.015-.295-1.855-.882-2.52-.59-.666-1.322-.998-2.197-.998zM48.54 113.367c-.178.155-.302.332-.373.53-.075.2-.11.507-.11.925v7.013c-.288-.01-.56-.1-.818-.278-.26-.178-.58-.516-.97-1.016l-4.244-5.39v5.034c0 .433.035.748.107.94.07.194.192.368.366.52h-1.865c.17-.156.295-.336.37-.534.074-.2.113-.508.113-.926v-5.36c0-.42-.04-.727-.113-.926-.076-.198-.2-.376-.37-.53h1.667l4.865 6.22v-4.764c0-.418-.04-.726-.113-.925-.075-.2-.198-.377-.37-.53h1.856zM50.46 120.53c-.035.084-.062.17-.08.26-.018.088-.025.18-.025.275 0 .08.027.165.085.26.056.096.15.202.275.32h-1.94c.16-.11.306-.262.434-.456s.26-.46.392-.798l2.314-5.91c.048-.11.082-.22.107-.327.023-.11.035-.203.035-.287 0-.095-.023-.183-.066-.262-.046-.08-.12-.16-.223-.238h1.87l2.617 6.94c.12.316.254.57.392.767.142.195.32.386.542.57h-2.357l.03-.028c.216-.23.324-.397.324-.504 0-.126-.047-.312-.143-.558-.01-.04-.022-.07-.03-.09l-.705-1.914h-3.065l-.786 1.98zm1.114-2.812H54l-1.166-3.2-1.26 3.2z"/><path class="st0" d="M78.883 84.69v-9.537h2.49v9.335c0 2.78 1.27 4.17 3.812 4.17 2.54 0 3.81-1.39 3.81-4.17v-9.335h2.493v9.537c0 4.132-2.1 6.198-6.297 6.198-4.205 0-6.307-2.066-6.307-6.198zM97.93 90.48V74.545l9.726 9.37c.53.515 1.084 1.137 1.663 1.862V75.153h2.27v15.923l-9.915-9.537c-.543-.517-1.034-1.09-1.473-1.718V90.48H97.93zM118.175 90.48V75.152h2.49V90.48h-2.49zM125.357 75.153h2.586l3.434 8.165c.384.914.656 1.734.816 2.46.188-.775.468-1.595.838-2.46l3.424-8.165h2.575l-6.837 15.923-6.836-15.923zM143.68 90.48V75.152h8.553v2.125h-6.06v3.79h6.06v2.23h-6.06v4.952h6.06v2.23h-8.552zM158.233 90.48V75.152h3.504c1.816 0 3.096.286 3.842.858.99.79 1.49 1.91 1.498 3.36 0 2.468-1.19 3.845-3.567 4.13l5.31 6.98h-2.816l-5.153-6.863h-.24v6.862h-2.377zm2.492-8.802h.453c1.21 0 2.064-.13 2.56-.393s.745-.83.745-1.702c0-.9-.254-1.51-.76-1.828-.507-.318-1.355-.477-2.544-.477h-.454v4.4zM172.23 87.39l1.988-.92c.37 1.403 1.356 2.104 2.96 2.104.74 0 1.33-.207 1.767-.623.437-.414.656-.964.656-1.648 0-.188-.02-.36-.062-.518-.042-.157-.084-.297-.126-.42-.042-.12-.128-.243-.257-.365-.13-.123-.23-.22-.3-.29-.07-.07-.21-.16-.42-.276-.21-.115-.356-.194-.44-.236l-.546-.267s-.473-.224-.578-.266c-1.514-.74-2.592-1.432-3.236-2.078-.643-.646-.966-1.513-.966-2.6 0-1.237.42-2.242 1.262-3.017.842-.775 1.95-1.162 3.328-1.162 1.14 0 2.097.216 2.868.65.77.432 1.3 1.053 1.59 1.863l-1.98 1.006c-.587-.928-1.347-1.392-2.278-1.392-.672 0-1.205.175-1.6.523-.396.35-.594.817-.594 1.403 0 .628.196 1.106.588 1.434.392.328 1.063.71 2.015 1.14.14.07.244.12.314.148 1.44.656 2.47 1.314 3.087 1.973.618.66.927 1.516.927 2.57 0 1.45-.458 2.608-1.374 3.47-.916.862-2.166 1.293-3.752 1.293-1.295 0-2.36-.302-3.2-.906-.836-.604-1.384-1.468-1.64-2.59zM187.873 90.48V75.152h2.492V90.48h-2.492zM195.23 77.278v-2.125h10.616v2.125h-4.05v13.2h-2.493v-13.2h-4.072zM209.786 75.153h2.617l3.22 5.203c.175.3.39.71.643 1.225.19-.502.408-.93.655-1.287l3.303-5.14h2.492l-5.276 8.312v7.014h-2.493v-7.015l-5.16-8.312zM78.883 113.735V98.41h2.492v13.095h5.57v2.23h-8.062zM91.86 113.735V98.41h2.492v15.325H91.86zM100.917 113.735V98.41h3.876c.96 0 1.726.044 2.3.134.575.09 1.075.3 1.502.625 1 .72 1.502 1.797 1.502 3.228 0 1.706-.733 2.78-2.2 3.226.894.138 1.6.54 2.12 1.208.52.667.78 1.51.78 2.525 0 1.305-.417 2.375-1.253 3.21-.506.504-1.103.825-1.79.962-.69.136-1.666.204-2.93.204h-3.907zm2.49-8.836h.95c1.157 0 1.987-.16 2.492-.48.504-.32.756-.88.756-1.68 0-.93-.246-1.548-.736-1.853-.49-.305-1.328-.458-2.512-.458h-.95v4.47zm0 6.71h.857c1.525 0 2.517-.156 2.977-.467.642-.436.962-1.08.962-1.93 0-.99-.39-1.693-1.17-2.108-.44-.228-1.11-.342-2.016-.342h-1.608v4.847zM116.47 113.735V98.41h3.505c1.816 0 3.096.285 3.842.857.992.788 1.492 1.908 1.5 3.358 0 2.47-1.19 3.846-3.568 4.132l5.308 6.978h-2.816l-5.153-6.862h-.243v6.862h-2.376zm2.493-8.8h.453c1.21 0 2.064-.132 2.56-.394.496-.26.745-.828.745-1.7 0-.902-.253-1.51-.76-1.83-.506-.317-1.354-.476-2.543-.476h-.453v4.4zM130.668 113.735l7.422-15.933 7.412 15.933h-2.628l-1.738-4h-6.072l-1.78 4h-2.616zm5.318-6.02h4.27l-1.57-3.496c-.187-.44-.38-1.02-.575-1.74-.174.67-.36 1.25-.554 1.74l-1.57 3.495zM150.105 113.735V98.41h3.504c1.815 0 3.095.285 3.84.857.993.788 1.493 1.908 1.5 3.358 0 2.47-1.19 3.846-3.567 4.132l5.31 6.978h-2.817l-5.153-6.862h-.242v6.862h-2.375zm2.492-8.8h.454c1.21 0 2.065-.132 2.56-.394s.746-.828.746-1.7c0-.902-.254-1.51-.76-1.83-.507-.317-1.355-.476-2.544-.476h-.454v4.4zM165.313 113.735V98.41h2.492v15.325h-2.492zM174.37 113.735V98.41h8.552v2.124h-6.06v3.79h6.06v2.23h-6.06v4.952h6.06v2.23h-8.553zM187.777 110.647l1.99-.92c.37 1.402 1.355 2.103 2.958 2.103.742 0 1.33-.207 1.768-.623.437-.415.656-.965.656-1.65 0-.187-.022-.36-.064-.517-.042-.157-.084-.297-.126-.42-.042-.12-.128-.243-.257-.365-.13-.122-.23-.218-.3-.288-.07-.07-.21-.162-.42-.277-.21-.115-.356-.194-.44-.236l-.546-.267c-.28-.136-.472-.225-.577-.267-1.514-.74-2.592-1.432-3.236-2.078-.643-.646-.966-1.513-.966-2.6 0-1.237.42-2.242 1.262-3.017.842-.774 1.95-1.16 3.328-1.16 1.14 0 2.097.215 2.868.648s1.3 1.054 1.59 1.864l-1.98 1.005c-.587-.928-1.347-1.392-2.278-1.392-.672 0-1.205.175-1.6.523-.396.35-.594.817-.594 1.403 0 .628.196 1.106.588 1.434.392.328 1.063.71 2.015 1.14.14.07.245.12.315.148 1.44.656 2.47 1.314 3.087 1.973.616.66.925 1.517.925 2.57 0 1.452-.458 2.61-1.374 3.47-.915.863-2.165 1.294-3.75 1.294-1.297 0-2.363-.302-3.2-.906-.838-.604-1.385-1.468-1.643-2.59z"/><path class="st5" d="M67.486 66.845v55"/></svg>