<?xml version="1.0" encoding="utf-8"?>
<!-- Generator: Adobe Illustrator 20.1.0, SVG Export Plug-In . SVG Version: 6.00 Build 0)  -->
<svg version="1.1" id="Layer_1" xmlns="http://www.w3.org/2000/svg" xmlns:xlink="http://www.w3.org/1999/xlink" x="0px" y="0px"
	 viewBox="0 0 27.7 11.2" style="enable-background:new 0 0 27.7 11.2;" xml:space="preserve">
<style type="text/css">
	.st0{fill:#A8A8A8;}
</style>
<g>
	<path class="st0" d="M7.2,1.2L7.2,1.2l0-0.4c0-0.1-0.1-0.2-0.2-0.2H6.8l0,0H4l0,0H3.9L1.4,3.2v0.2v0.1v5v0.2c0,0.1,0.1,0.2,0.2,0.2
		h0.2h5.1H7c0.1,0,0.2-0.1,0.2-0.2V8.5h0V1.2z M2.4,8V3.5H4c0.1,0,0.2-0.1,0.2-0.2V1.6h2V8H2.4z"/>
</g>
<g>
	<path class="st0" d="M11.8,6h-1.6v2.8H9V1.6h2.7c1.4,0,2.3,0.9,2.3,2.2C14.1,5,13.2,6,11.8,6z M11.7,2.6h-1.6V5h1.6
		C12.5,5,13,4.5,13,3.8C13,3,12.5,2.6,11.7,2.6z"/>
	<path class="st0" d="M19.7,8.1c-0.5,0.5-1.1,0.7-1.9,0.7h-2.5V1.6h2.5c0.8,0,1.4,0.2,1.9,0.7c0.8,0.8,0.7,1.8,0.7,2.9
		C20.4,6.2,20.4,7.3,19.7,8.1z M18.9,3c-0.3-0.3-0.7-0.5-1.2-0.5h-1.3v5.3h1.3c0.5,0,0.9-0.2,1.2-0.5c0.4-0.4,0.4-1.2,0.4-2.2
		S19.3,3.5,18.9,3z"/>
	<path class="st0" d="M23.2,2.6v2.2h3v1h-3v3.1h-1.1V1.6h4.6v1H23.2z"/>
</g>
</svg>
