<svg xmlns="http://www.w3.org/2000/svg" version="1.1" x="0" y="0" width="160" height="20" viewBox="0 0 160 20" enable-background="new 0 0 160 20" xml:space="preserve">
  <path fill="#7A68AE" d="M6.7 20c-2.4 0-5.1-0.7-6.7-1.5l0.2-4.8c1.3 1 4.1 2.1 6.5 2.1 1.3 0 2-0.6 2-1.5 0-2.4-8.3-2.8-8.3-8.2 0-3.9 3-6 7.1-6 2.2 0 4.6 0.7 5.9 1.4l-1 4.1c-1.3-0.7-3.1-1.3-4.6-1.3 -1.3 0-2 0.6-2 1.5 0 2.3 8.2 2.7 8.2 8.1C14.1 17.8 11 20 6.7 20zM40.6 4.3v6.7c0 3-0.9 5.1-2.5 6.6 -1.7 1.5-4 2.4-6.9 2.4 -5.4 0-9-2.6-9-7.6V7c0-1.7-0.1-5.2-0.2-6.5 1.1 0 5.1 0 6-0.1 -0.1 0.8-0.1 3-0.1 4v7.2c0 2.9 1.3 4.1 3.7 4.1 2.3 0 3.4-1.2 3.4-3.7V7c0-1.7-0.1-5.2-0.2-6.5 1.1 0 5.1 0 6.1-0.1C40.7 1.1 40.6 3.3 40.6 4.3zM49.4 13l0.9-6c0.3-1.7 0.7-5.1 0.8-6.6l4.3-0.2c0.5 1.1 1.2 2.6 1.8 3.8l3.7 7.8 3.6-8c0.5-1.2 1.2-2.6 1.7-3.7h4.2c0.2 1.6 0.7 5 0.9 6.7l0.9 6c0.3 1.8 0.8 5.1 1.1 6.5l-5.6 0.2c-0.1-0.8-0.3-3.1-0.5-4.1l-0.8-6c-1.4 3.3-3.9 9.2-4.3 10.1l-3 0.1 -4.3-10 -0.7 5.8c-0.1 1.1-0.3 3.1-0.4 3.9h-5.6C48.6 18.1 49.1 14.7 49.4 13zM81.6 13l0.9-6c0.3-1.7 0.7-5.1 0.8-6.6l4.3-0.2c0.5 1.1 1.2 2.6 1.8 3.8l3.7 7.8 3.6-8c0.5-1.2 1.2-2.6 1.7-3.7h4.2c0.2 1.6 0.7 5 0.9 6.7l0.9 6c0.3 1.8 0.8 5.1 1.1 6.5l-5.6 0.2c-0.1-0.8-0.3-3.1-0.5-4.1l-0.8-6c-1.4 3.3-3.9 9.2-4.3 10.1l-3 0.1 -4.3-10 -0.7 5.8c-0.1 1.1-0.3 3.1-0.4 3.9h-5.6C80.8 18.1 81.3 14.7 81.6 13zM112.5 10.5c0-6 4.2-10.5 10.5-10.5 6 0 10 4.2 10 9.5 0 6-4.3 10.5-10.5 10.5C116.5 20 112.5 15.8 112.5 10.5zM127.5 10.1c0-3.6-1.9-5.9-4.7-5.9 -2.9 0-4.8 2.6-4.8 5.7 0 3.6 2 5.9 4.7 5.9C125.6 15.8 127.5 13.2 127.5 10.1zM141.2 13l0.1-6.1c0-1.7 0-5.1-0.2-6.4l4.2-0.3 9.2 10.7V7c0-1.7-0.1-5.2-0.2-6.5 1.1 0 4.8 0 5.8-0.1 -0.1 0.8-0.1 3-0.1 4v11.3c0 1.1-0.1 3.2 0.1 4l-4.1 0.3 -9.3-10.8v6.5c0 1 0 3.1 0.1 3.9h-5.7C141.1 18.2 141.2 14.7 141.2 13z"/>
</svg>