<svg xmlns="http://www.w3.org/2000/svg" version="1.1" x="0" y="0" viewBox="0 0 1000 1000" enable-background="new 0 0 1000 1000" xml:space="preserve"><g opacity="0.2"><polygon fill="#B5BDC1" points="393.3 499.4 404.9 510.9 404.9 487.8 "/><polygon fill="#B5BDC1" points="606.3 499.3 594.7 487.8 594.7 510.9 "/><polygon fill="#B5BDC1" points="499.8 330.7 488.2 342.3 511.4 342.3 "/><polygon fill="#B5BDC1" points="431.3 357.5 415.5 353.3 411.2 369.1 "/><polygon fill="#B5BDC1" points="369.6 410.8 353.7 415 358 430.8 "/><polygon fill="#B5BDC1" points="331.1 499.4 342.7 510.9 342.7 487.8 "/><polygon fill="#B5BDC1" points="369.6 587.9 358 567.9 353.7 583.7 "/><polygon fill="#B5BDC1" points="431.3 641.2 411.2 629.6 415.5 645.4 "/><polygon fill="#B5BDC1" points="511.4 656.4 488.2 656.4 499.8 668 "/><polygon fill="#B5BDC1" points="568.3 641.2 584.2 645.4 588.4 629.6 "/><polygon fill="#B5BDC1" points="641.7 567.9 630.1 587.9 645.9 583.7 "/><polygon fill="#B5BDC1" points="668.5 499.3 656.9 487.8 656.9 510.9 "/><polygon fill="#B5BDC1" points="630.1 410.8 641.7 430.8 645.9 415 "/><polygon fill="#B5BDC1" points="584.2 353.3 568.3 357.5 588.4 369.1 "/><polygon fill="#B5BDC1" points="478.4 374.6 464.2 366.5 456 380.6 "/><polygon fill="#B5BDC1" points="418.9 402.1 402.5 402.1 402.5 418.5 "/><polygon fill="#B5BDC1" points="366.9 463.7 375.1 477.9 381.1 455.5 "/><polygon fill="#B5BDC1" points="375.1 520.8 366.9 535 381.1 543.2 "/><polygon fill="#B5BDC1" points="418.9 596.6 402.5 580.3 402.5 596.6 "/><polygon fill="#B5BDC1" points="478.4 624.1 456 618.1 464.2 632.3 "/><polygon fill="#B5BDC1" points="521.3 624.1 535.4 632.3 543.6 618.1 "/><polygon fill="#B5BDC1" points="580.7 596.6 597.1 596.6 597.1 580.3 "/><polygon fill="#B5BDC1" points="632.7 535 624.5 520.8 618.6 543.2 "/><polygon fill="#B5BDC1" points="632.7 463.7 618.5 455.5 624.5 477.9 "/><polygon fill="#B5BDC1" points="597.1 402.1 580.7 402.1 597.1 418.4 "/><polygon fill="#B5BDC1" points="535.4 366.4 521.2 374.6 543.6 380.6 "/><polygon fill="#B5BDC1" points="499.8 392.9 488.2 404.4 511.4 404.4 "/><polygon fill="#B5BDC1" points="462.4 411.4 446.6 407.1 442.3 422.9 "/><polygon fill="#B5BDC1" points="423.4 441.9 407.6 446.1 411.8 461.9 "/><polygon fill="#B5BDC1" points="423.4 556.8 411.8 536.8 407.6 552.6 "/><polygon fill="#B5BDC1" points="462.4 587.3 442.3 575.8 446.6 591.6 "/><polygon fill="#B5BDC1" points="511.4 594.3 488.2 594.3 499.8 605.8 "/><polygon fill="#B5BDC1" points="537.2 587.3 553.1 591.6 557.3 575.8 "/><polygon fill="#B5BDC1" points="587.8 536.8 576.2 556.8 592.1 552.6 "/><polygon fill="#B5BDC1" points="576.2 441.9 587.8 461.9 592.1 446.1 "/><polygon fill="#B5BDC1" points="553.1 407.1 537.2 411.4 557.3 422.9 "/><polygon fill="#B5BDC1" points="527.5 558 505.2 564 519.3 572.2 "/><polygon fill="#B5BDC1" points="480.3 426.5 472.1 440.7 494.5 434.7 "/><polygon fill="#B5BDC1" points="462.9 446 446.5 446 446.5 462.4 "/><polygon fill="#B5BDC1" points="441.2 471.6 427 479.8 435.2 494 "/><polygon fill="#B5BDC1" points="427 518.9 441.2 527.1 435.2 504.7 "/><polygon fill="#B5BDC1" points="462.9 552.7 446.5 536.3 446.5 552.7 "/><polygon fill="#B5BDC1" points="494.5 564 472.1 558 480.3 572.2 "/><polygon fill="#B5BDC1" points="536.8 552.7 553.1 552.7 553.1 536.3 "/><polygon fill="#B5BDC1" points="564.5 504.7 558.5 527.1 572.7 518.9 "/><polygon fill="#B5BDC1" points="572.7 479.8 558.5 471.6 564.5 494 "/><polygon fill="#B5BDC1" points="536.8 446 553.2 462.4 553.1 446 "/><polygon fill="#B5BDC1" points="519.3 426.5 505.2 434.7 527.5 440.7 "/><polygon fill="#B5BDC1" points="499.8 144.1 488.2 155.7 511.4 155.7 "/><polygon fill="#B5BDC1" points="338 196 322.2 191.7 318 207.5 "/><polygon fill="#B5BDC1" points="208 317.5 192.2 321.7 196.4 337.6 "/><polygon fill="#B5BDC1" points="156.2 487.8 144.6 499.4 156.2 510.9 "/><polygon fill="#B5BDC1" points="208 681.2 196.4 661.1 192.2 677 "/><polygon fill="#B5BDC1" points="338.1 802.8 318 791.2 322.2 807 "/><polygon fill="#B5BDC1" points="511.4 843 488.3 843 499.8 854.6 "/><polygon fill="#B5BDC1" points="661.6 802.7 677.5 807 681.7 791.2 "/><polygon fill="#B5BDC1" points="803.2 661.1 791.7 681.2 807.5 677 "/><polygon fill="#B5BDC1" points="855.1 499.3 843.5 487.8 843.5 510.9 "/><polygon fill="#B5BDC1" points="791.6 317.5 803.2 337.6 807.5 321.7 "/><polygon fill="#B5BDC1" points="677.4 191.7 661.6 196 681.7 207.5 "/><polygon fill="#B5BDC1" points="414 134.4 399.8 126.2 391.6 140.4 "/><polygon fill="#B5BDC1" points="243 226.2 226.7 226.2 226.7 242.6 "/><polygon fill="#B5BDC1" points="126.7 399.4 134.9 413.6 140.9 391.2 "/><polygon fill="#B5BDC1" points="134.9 585.2 126.7 599.3 140.9 607.5 "/><polygon fill="#B5BDC1" points="243.1 772.5 226.7 756.1 226.7 772.5 "/><polygon fill="#B5BDC1" points="414 864.3 391.7 858.3 399.9 872.5 "/><polygon fill="#B5BDC1" points="585.6 864.3 599.8 872.5 608 858.3 "/><polygon fill="#B5BDC1" points="773 756.1 756.6 772.5 773 772.5 "/><polygon fill="#B5BDC1" points="873 599.3 864.8 585.1 858.8 607.5 "/><polygon fill="#B5BDC1" points="873 399.4 858.8 391.2 864.8 413.5 "/><polygon fill="#B5BDC1" points="756.6 226.2 773 242.6 773 226.2 "/><polygon fill="#B5BDC1" points="599.8 126.2 585.6 134.4 608 140.4 "/><polygon fill="#B5BDC1" points="499.8 81.9 488.2 93.5 511.4 93.5 "/><polygon fill="#B5BDC1" points="306.9 142.1 291.1 137.9 286.9 153.7 "/><polygon fill="#B5BDC1" points="154.2 286.4 138.3 290.7 142.6 306.5 "/><polygon fill="#B5BDC1" points="82.4 499.4 94 510.9 94 487.8 "/><polygon fill="#B5BDC1" points="154.2 712.3 142.6 692.2 138.4 708.1 "/><polygon fill="#B5BDC1" points="307 856.6 286.9 845 291.1 860.8 "/><polygon fill="#B5BDC1" points="511.4 905.2 488.3 905.2 499.8 916.8 "/><polygon fill="#B5BDC1" points="692.7 856.6 708.5 860.8 712.8 845 "/><polygon fill="#B5BDC1" points="857.1 692.2 845.5 712.3 861.3 708 "/><polygon fill="#B5BDC1" points="917.2 499.3 905.7 487.8 905.7 510.9 "/><polygon fill="#B5BDC1" points="845.5 286.4 857.1 306.5 861.3 290.6 "/><polygon fill="#B5BDC1" points="708.5 137.9 692.7 142.1 712.8 153.7 "/><polygon fill="#B5BDC1" points="397.9 74.3 383.7 66.1 375.6 80.3 "/><polygon fill="#B5BDC1" points="199.1 182.2 182.7 182.2 182.7 198.6 "/><polygon fill="#B5BDC1" points="66.6 383.3 74.8 397.5 80.8 375.1 "/><polygon fill="#B5BDC1" points="74.8 601.2 66.6 615.4 80.8 623.6 "/><polygon fill="#B5BDC1" points="199.1 816.5 182.7 800.1 182.7 816.5 "/><polygon fill="#B5BDC1" points="398 924.4 375.6 918.4 383.8 932.6 "/><polygon fill="#B5BDC1" points="601.7 924.4 615.9 932.6 624.1 918.4 "/><polygon fill="#B5BDC1" points="800.6 816.5 817 816.5 817 800.1 "/><polygon fill="#B5BDC1" points="933.1 615.4 924.9 601.2 918.9 623.6 "/><polygon fill="#B5BDC1" points="933.1 383.3 918.9 375.1 924.9 397.5 "/><polygon fill="#B5BDC1" points="817 182.2 800.6 182.2 817 198.6 "/><polygon fill="#B5BDC1" points="615.9 66.1 601.7 74.3 624.1 80.3 "/><polygon fill="#B5BDC1" points="499.8 19.8 488.2 31.3 511.4 31.3 "/><polygon fill="#B5BDC1" points="275.9 88.3 260 84 255.8 99.8 "/><polygon fill="#B5BDC1" points="100.3 255.3 84.5 259.6 88.7 275.4 "/><polygon fill="#B5BDC1" points="20.2 499.4 31.8 510.9 31.8 487.8 "/><polygon fill="#B5BDC1" points="100.3 743.4 88.7 723.3 84.5 739.2 "/><polygon fill="#B5BDC1" points="275.9 910.5 255.8 898.9 260 914.7 "/><polygon fill="#B5BDC1" points="511.4 967.4 488.3 967.4 499.8 978.9 "/><polygon fill="#B5BDC1" points="723.8 910.4 739.6 914.7 743.9 898.9 "/><polygon fill="#B5BDC1" points="910.9 723.3 899.3 743.4 915.2 739.1 "/><polygon fill="#B5BDC1" points="979.4 499.3 967.8 487.8 967.8 510.9 "/><polygon fill="#B5BDC1" points="899.3 255.3 910.9 275.4 915.2 259.5 "/><polygon fill="#B5BDC1" points="739.6 84 723.8 88.3 743.9 99.8 "/><polygon fill="#B5BDC1" points="381.8 14.3 367.7 6.1 359.5 20.3 "/><polygon fill="#B5BDC1" points="155.1 138.3 138.7 138.3 138.7 154.6 "/><polygon fill="#B5BDC1" points="6.6 367.2 14.7 381.4 20.7 359 "/><polygon fill="#B5BDC1" points="14.8 617.3 6.6 631.5 20.7 639.7 "/><polygon fill="#B5BDC1" points="155.1 860.5 138.7 844.1 138.7 860.5 "/><polygon fill="#B5BDC1" points="381.9 984.4 359.5 978.4 367.7 992.6 "/><polygon fill="#B5BDC1" points="617.8 984.4 632 992.6 640.2 978.4 "/><polygon fill="#B5BDC1" points="844.6 860.5 861 860.5 861 844.1 "/><polygon fill="#B5BDC1" points="993.1 631.5 984.9 617.3 978.9 639.7 "/><polygon fill="#B5BDC1" points="993.1 367.2 978.9 359 984.9 381.4 "/><polygon fill="#B5BDC1" points="844.6 138.2 860.9 154.6 860.9 138.2 "/><polygon fill="#B5BDC1" points="632 6.1 617.8 14.3 640.2 20.3 "/><polygon fill="#B5BDC1" points="499.8 268.5 488.2 280.1 511.4 280.1 "/><polygon fill="#B5BDC1" points="400.2 303.7 384.4 299.4 380.2 315.2 "/><polygon fill="#B5BDC1" points="315.7 379.7 299.9 383.9 304.1 399.8 "/><polygon fill="#B5BDC1" points="269 499.4 280.6 510.9 280.6 487.8 "/><polygon fill="#B5BDC1" points="315.7 619 304.1 599 299.9 614.8 "/><polygon fill="#B5BDC1" points="400.2 695 380.2 683.5 384.4 699.3 "/><polygon fill="#B5BDC1" points="511.4 718.6 488.2 718.6 499.8 730.2 "/><polygon fill="#B5BDC1" points="599.4 695 615.3 699.3 619.5 683.5 "/><polygon fill="#B5BDC1" points="695.5 599 683.9 619 699.8 614.8 "/><polygon fill="#B5BDC1" points="730.7 499.3 719.1 487.8 719.1 510.9 "/><polygon fill="#B5BDC1" points="683.9 379.7 695.5 399.7 699.8 383.9 "/><polygon fill="#B5BDC1" points="615.3 299.4 599.4 303.7 619.5 315.2 "/><polygon fill="#B5BDC1" points="446.2 254.5 432 246.3 423.8 260.5 "/><polygon fill="#B5BDC1" points="331 314.1 314.6 314.1 314.6 330.5 "/><polygon fill="#B5BDC1" points="246.8 431.6 255 445.8 261 423.4 "/><polygon fill="#B5BDC1" points="255 553 246.8 567.2 261 575.4 "/><polygon fill="#B5BDC1" points="331 684.6 314.6 668.2 314.6 684.6 "/><polygon fill="#B5BDC1" points="446.2 744.2 423.8 738.2 432 752.4 "/><polygon fill="#B5BDC1" points="553.4 744.2 567.6 752.4 575.8 738.2 "/><polygon fill="#B5BDC1" points="668.7 684.6 685.1 684.6 685.1 668.2 "/><polygon fill="#B5BDC1" points="752.9 567.1 744.7 553 738.7 575.3 "/><polygon fill="#B5BDC1" points="752.9 431.5 738.7 423.4 744.7 445.7 "/><polygon fill="#B5BDC1" points="685.1 314.1 668.7 314.1 685.1 330.5 "/><polygon fill="#B5BDC1" points="567.6 246.3 553.4 254.5 575.8 260.5 "/><polygon fill="#B5BDC1" points="499.8 206.3 488.2 217.9 511.4 217.9 "/><polygon fill="#B5BDC1" points="369.1 249.8 353.3 245.6 349.1 261.4 "/><polygon fill="#B5BDC1" points="261.9 348.6 246 352.8 250.3 368.7 "/><polygon fill="#B5BDC1" points="206.8 499.4 218.4 510.9 218.4 487.8 "/><polygon fill="#B5BDC1" points="261.9 650.1 250.3 630 246 645.9 "/><polygon fill="#B5BDC1" points="369.1 748.9 349.1 737.3 353.3 753.1 "/><polygon fill="#B5BDC1" points="511.4 780.8 488.2 780.8 499.8 792.4 "/><polygon fill="#B5BDC1" points="630.5 748.9 646.4 753.1 650.6 737.3 "/><polygon fill="#B5BDC1" points="749.4 630 737.8 650.1 753.6 645.9 "/><polygon fill="#B5BDC1" points="792.9 499.3 781.3 487.8 781.3 510.9 "/><polygon fill="#B5BDC1" points="737.8 348.6 749.4 368.7 753.6 352.8 "/><polygon fill="#B5BDC1" points="646.4 245.6 630.5 249.8 650.6 261.4 "/><polygon fill="#B5BDC1" points="430.1 194.5 415.9 186.3 407.7 200.5 "/><polygon fill="#B5BDC1" points="287 270.2 270.6 270.2 270.6 286.5 "/><polygon fill="#B5BDC1" points="186.7 415.5 194.9 429.7 200.9 407.3 "/><polygon fill="#B5BDC1" points="194.9 569.1 186.7 583.3 200.9 591.4 "/><polygon fill="#B5BDC1" points="287 728.6 270.6 712.2 270.6 728.6 "/><polygon fill="#B5BDC1" points="430.1 804.3 407.8 798.3 415.9 812.4 "/><polygon fill="#B5BDC1" points="569.5 804.2 583.7 812.4 591.9 798.3 "/><polygon fill="#B5BDC1" points="712.7 728.5 729 728.5 729 712.2 "/><polygon fill="#B5BDC1" points="812.9 583.2 804.7 569 798.7 591.4 "/><polygon fill="#B5BDC1" points="812.9 415.4 798.7 407.3 804.7 429.6 "/><polygon fill="#B5BDC1" points="729 270.1 712.6 270.1 729 286.5 "/><polygon fill="#B5BDC1" points="583.7 186.3 569.5 194.5 591.9 200.4 "/><polygon fill="#B5BDC1" points="462.3 314.6 448.1 306.4 439.9 320.6 "/><polygon fill="#B5BDC1" points="375 358.1 358.6 358.1 358.6 374.5 "/><polygon fill="#B5BDC1" points="306.9 447.7 315.1 461.8 321.1 439.5 "/><polygon fill="#B5BDC1" points="315.1 536.9 306.9 551.1 321.1 559.3 "/><polygon fill="#B5BDC1" points="375 640.6 358.6 624.2 358.6 640.6 "/><polygon fill="#B5BDC1" points="462.3 684.1 439.9 678.1 448.1 692.3 "/><polygon fill="#B5BDC1" points="537.3 684.1 551.5 692.3 559.7 678.1 "/><polygon fill="#B5BDC1" points="624.7 640.6 641.1 640.6 641.1 624.2 "/><polygon fill="#B5BDC1" points="692.8 551.1 684.6 536.9 678.6 559.3 "/><polygon fill="#B5BDC1" points="692.8 447.6 678.6 439.5 684.6 461.8 "/><polygon fill="#B5BDC1" points="624.7 358.1 641.1 374.5 641.1 358.1 "/><polygon fill="#B5BDC1" points="551.5 306.4 537.3 314.6 559.7 320.6 "/></g></svg>