<svg xmlns="http://www.w3.org/2000/svg" width="26" height="108" viewBox="-354 -129.1 26 108"><path fill="#ddd" d="M-341-120.6c-2.6 0-4.8 1.9-4.8 5.2 0 3.3 1.8 6.7 4.8 6.7 3.2 0 4.8-3.4 4.8-6.7 0-3.3-2.2-5.2-4.8-5.2zm-4.8 11.9c-2.6 0-4.8 2.1-4.8 4.7v2.2c0 .2.1.2.2.2h18.5c.1 0 .2-.1.2-.2v-2.1c0-2.7-2.1-4.8-4.8-4.8h-1.2c-.1 0-.3 0-.4.1-.9.7-2 1.1-3.1 1.1s-2.2-.3-3.1-1.1c-.1 0-.2-.2-.4-.2l-1.1.1z"/><path fill="#fff" d="M-341.2-101.7c-1.4-.9-3.1-1.1-4.4-1.1-.9 0-1.5.1-1.5.1l-.2.1v-8.8h.1s.5-.1 1.4-.1c1.3 0 3.1.2 4.6 1.1h.4c1.5-.9 3.3-1.1 4.6-1.1.8 0 1.3.1 1.4.1h.1v8.8h-.2s-.6-.1-1.4-.1c-1.2 0-3 .2-4.4 1.1h-.1c.1-.1-.4-.1-.4-.1z"/><path fill="#ddd" d="M-336.2-111.4h1.3v8.5s-.6-.1-1.5-.1c-1.2 0-3 .2-4.4 1.1h-.5c-1.4-.9-3.2-1.1-4.5-1.1-.9 0-1.4.1-1.4.1v-8.5h1.3c1.2 0 3.1.2 4.6 1h.5c1.5-.8 3.4-1 4.6-1m0-.3c-1.3 0-3.2.2-4.7 1.1h-.3c-1.5-.9-3.3-1.1-4.7-1.1-.8 0-1.4.1-1.4.1h-.2v9.1l.4-.1s.6-.1 1.4-.1c1.2 0 3 .2 4.3 1v.1h.7l.1-.1c1.4-.8 3-1 4.3-1 .9 0 1.4.1 1.4.1l.4.1v-9.1h-.2c-.2 0-.7-.1-1.5-.1zm-8.5 4.4l-.5-.2-.6.2v-4.1h1.1z"/><path fill="#fff" d="M-336.4-76.7c0-3-3.2-5.4-7.2-5.4s-7.2 2.4-7.2 5.4c0 1.8 1.1 3.4 3 4.3l-1.5 2.6 4.4-1.7c.5.1.9.1 1.3.1 4 .1 7.2-2.3 7.2-5.3zm5.3 1.7c0-3-3-5.4-6.4-5.4 4.8 4.7-.8 9.8-5.4 9.8 0 0 .5 1.1 4.5 1.1.5 0 .9-.1 1.3-.1l4.4 1.7-1.5-2.6c2-1.1 3.1-2.7 3.1-4.5z"/><circle fill="#6A80A4" cx="-343.6" cy="-41" r="4.4"/><g fill="#fff"><path d="M-336.4-40.7c0-3-3.2-5.4-7.2-5.4s-7.2 2.4-7.2 5.4c0 1.8 1.1 3.4 3 4.3l-1.5 2.6 4.4-1.7c.5.1.9.1 1.3.1 4 .1 7.2-2.3 7.2-5.3zm-4 1.9c.1.2.1.3 0 .5l-.8.8c-.1.2-.4.2-.5 0l-2.1-2.1-2.1 2.1c-.1.2-.4.2-.5 0l-.8-.8c-.1-.2-.1-.3 0-.5l2.1-2.1-2.1-2.1c-.1-.2-.1-.3 0-.5l.8-.8c.1-.2.4-.2.5 0l2.1 2.1 2.1-2.1c.1-.2.4-.2.5 0l.8.8c.1.2.1.3 0 .5l-2.1 2.1 2.1 2.1zm9.3-.2c0-3-3-5.3-6.4-5.4 4.8 4.7-.8 9.8-5.4 9.8 0 0 .5 1.1 4.5 1.1.5 0 .9-.1 1.3-.1l4.4 1.7-1.5-2.6c2-1.1 3.1-2.7 3.1-4.5z"/></g></svg>