<svg xmlns="http://www.w3.org/2000/svg" width="24" height="18" viewBox="-76.2 44.5 24 18"><title>Chat Offline</title><ellipse fill="#6A80A4" cx="-67.1" cy="51.2" rx="4.9" ry="5"/><path fill="#fff" d="M-59.1 51.6c0-3.4-3.6-6.1-8-6.1-4.5 0-8 2.7-8 6.1 0 2 1.2 3.8 3.4 4.8l-1.7 2.9 4.9-1.9c.6.1 1 .1 1.5.1 4.3.1 7.9-2.6 7.9-5.9zm-4.5 2.1c.1.2.1.3 0 .6l-.9.9c-.1.2-.4.2-.6 0l-2.3-2.4-2.3 2.4c-.1.2-.4.2-.6 0l-.9-.9c-.1-.2-.1-.3 0-.6l2.3-2.4-2.3-2.4c-.1-.2-.1-.3 0-.6l.9-.9c.1-.2.4-.2.6 0l2.3 2.4 2.3-2.4c.1-.2.4-.2.6 0l.9.9c.1.2.1.3 0 .6l-2.3 2.4 2.3 2.4zm10.4-.2c0-3.4-3.4-6-7.1-6.1 5.4 5.3-.9 11-6 11 0 0 .6 1.2 5 1.2.6 0 1-.1 1.5-.1l4.9 1.9-1.7-2.9c2.2-1.2 3.4-3 3.4-5z"/></svg>