<svg xmlns="http://www.w3.org/2000/svg" width="18" height="18" viewBox="-76.2 22.8 18 18"><title>Default image</title><path fill="#ddd" d="M-67 23.8c-2.2 0-4.1 1.6-4.1 4.4 0 2.8 1.5 5.6 4.1 5.6 2.7 0 4.1-2.9 4.1-5.6-.1-2.8-1.9-4.4-4.1-4.4zm-4.1 10c-2.2 0-4.1 1.8-4.1 4v1.9c0 .2.1.2.2.2h15.7l.2-.2v-1.8c0-2.3-1.8-4-4.1-4h-1l-.3.1c-.8.6-1.7.9-2.6.9s-1.9-.3-2.6-.9c-.1 0-.2-.2-.3-.2h-1.1z"/><path fill="#fff" d="M-67.2 39.7c-1.2-.8-2.6-.9-3.7-.9-.8 0-1.3.1-1.3.1l-.2.1v-7.4h.1s.4-.1 1.2-.1c1.1 0 2.6.2 3.9.9h.3c1.3-.8 2.8-.9 3.9-.9.7 0 1.1.1 1.2.1h.1V39h-.2s-.5-.1-1.2-.1c-1 0-2.5.2-3.7.9h-.1l-.3-.1z"/><path fill="#ddd" d="M-63 31.5h1.1v7.2s-.5-.1-1.3-.1c-1 0-2.5.2-3.7.9h-.4c-1.2-.8-2.7-.9-3.8-.9-.8 0-1.2.1-1.2.1v-7.2h1.1c1 0 2.6.2 3.9.8h.4c1.3-.6 2.9-.8 3.9-.8m0-.2c-1.1 0-2.7.2-4 .9h-.3c-1.3-.8-2.8-.9-4-.9-.7 0-1.2.1-1.2.1h-.2V39l.3-.1s.5-.1 1.2-.1c1 0 2.5.2 3.6.8v.1h.6l.1-.1c1.2-.7 2.5-.8 3.6-.8.8 0 1.2.1 1.2.1l.3.1v-7.7h-.2c.1.1-.3 0-1 0zm-7.2 3.7l-.4-.2-.5.2v-3.5h.9z"/></svg>