<svg xmlns="http://www.w3.org/2000/svg" viewBox="0 0 16 16" class="iconic iconic-phone"><title>Phone</title><path class="iconic-property-fill iconic-phone-handle" d="M7.665 9.88c-.013-.01-1.517-2.537-1.522-2.57-.31-.68-.562-1.375-.04-1.683l-2.17-3.66c-.563.42-2.154 2.703.825 7.874 3.137 5.45 6.123 5.224 6.72 4.855l-2.114-3.572c-.5.294-.92-.19-1.7-1.243z"/><path class="iconic-property-fill iconic-property-accent iconic-phone-earpiece" d="M12.93 13.31l.002-.004-1.652-2.784a.462.462 0 0 0-.632-.162l-1.012.598 2.12 3.583s1.013-.594 1.012-.597h.002a.462.462 0 0 0 .162-.635z"/><path class="iconic-property-fill iconic-property-accent iconic-phone-mouthpiece" d="M7.393 4.868v-.002a.46.46 0 0 0 .162-.633V4.23s-1.698-2.865-1.7-2.865a.459.459 0 0 0-.63-.162l-1.012.6 2.168 3.66 1.013-.595z"/></svg>